<svg id="Layer_1" data-name="Layer 1" xmlns="http://www.w3.org/2000/svg" xmlns:xlink="http://www.w3.org/1999/xlink" viewBox="0 0 378.68 413.46"><defs><style>.cls-1,.cls-5,.cls-6,.cls-8{fill:none;}.cls-2{fill:#fff;stroke:#fff;stroke-width:3px;}.cls-2,.cls-5,.cls-6,.cls-7,.cls-8{stroke-linecap:round;stroke-linejoin:round;}.cls-3{opacity:0.5;}.cls-4{clip-path:url(#clip-path);}.cls-5{stroke:#4cbb17;stroke-width:0.5px;}.cls-6,.cls-7,.cls-8{stroke:#55bb72;}.cls-6{stroke-width:0.7px;}.cls-7,.cls-8{stroke-width:6px;}.cls-7{fill:url(#linear-gradient);}</style><clipPath id="clip-path" transform="translate(-14.37 135.69)"><path class="cls-1" d="M301.6,39.9c2.8,39.4-6,66.7-39.5,97.8s-103.2,35.4-103.2,35.4M301.6,39.9C233,19.3,197.2,53.8,197.2,53.8,134.6,99,158.9,173,158.9,173"/></clipPath><linearGradient id="linear-gradient" x1="143.37" y1="29.73" x2="311.75" y2="126.95" gradientTransform="matrix(0.95, -0.31, -0.31, -0.95, 33.21, 245.74)" gradientUnits="userSpaceOnUse"><stop offset="0" stop-color="#55bb72" stop-opacity="0.5"/><stop offset="1" stop-color="#fff" stop-opacity="0"/></linearGradient></defs><title>Leaf-right</title><path class="cls-2" d="M302.7,39.3c2.8,39.4-6,66.7-39.5,97.8S160,172.4,160,172.4M302.7,39.3C234.1,18.6,198.3,53.2,198.3,53.2,135.7,98.4,160,172.4,160,172.4" transform="translate(-14.37 135.69)"/><g class="cls-3"><g class="cls-4"><path class="cls-5" d="M63.9-43.9a0.38,0.38,0,0,1,.2-0.2c0.7,0.6-1.2,9.4-.9,9.7s49.1-56,49.7-55.5c1.3,1.2-48.7,54.6-45.1,57.7,1.4,1.3,16.1-19.2,16.7-18.7C88.7-47.1,50-7,51.6-5.5,53.4-3.9,86-47.6,87.9-45.9c2.9,2.6-28.6,35.7-26.5,37.6C62.6-7.1,108.3-68,112-64.7c5.4,4.8-72.1,80.6-67.8,84.5,4,3.5,57.4-67,58.9-65.7C107.7-41.8,29,22,36.6,28.9,38.6,30.7,138.5-92.4,142.3-89c7.4,6.7-110.1,122.1-107,124.8C41.1,41,149.7-94.9,151.3-93.5,155-90.2,73.8-14.7,81.7-7.7c0,0,66.5-82.6,70.7-78.8C159.8-79.7,41.6,37.7,43.5,39.4c5.4,4.8,94.2-117.2,100.2-111.8,0,0-66.6,79.7-66.2,80.1,0,0,71.3-92,77.5-86.4,0,0-102.6,105.6-93.5,113.8,1.9,1.7,127.1-155.8,134.1-149.5,8.8,7.9-95.9,105.5-94.8,106.5,3.5,3.2,95.4-109.1,96.7-107.9,2.4,2.2-144,137.2-128.9,150.7,3.8,3.4,133.6-150.2,134.1-149.6,8,7.1-128,143.7-126.8,144.8,2.3,2.1,134-159.1,138.8-154.8C225.8-114.8,78,3.9,92.4,16.8c9.6,8.6,54.2-73.6,60.7-67.7,1.8,1.7-77.6,76-70.5,82.3,2.1,1.9,94.9-124,103.9-115.9,1.1,1-146.3,140.7-132.1,153.4C64,77.5,161.6-57.1,164.8-54.2c2.4,2.1-65.2,62.1-59.8,67.1,6.2,5.4,124-140.2,125-139.3C242.3-115.4,84.8,27,89.9,31.6c5.6,5.1,121.3-149.7,128.4-143.2C235.3-96.4,61,48.9,70,57c5.3,4.7,155.6-187.6,162.6-181.4C241-117,47.6,75.9,51.7,79.6,61.8,88.6,154-57.1,165.3-47c6,5.3-111.8,128.9-110.6,130C61.2,88.8,243-142,250.4-135.3c8.4,7.5-147.8,148-137.9,157,7.4,6.6,87-120.3,98.6-110C227.7-73.4,63.7,70.8,66.9,73.7,79.9,85.4,187.3-87,200.4-75.3,209.4-67.2,47.3,80.3,54.8,87c3.3,3,154.4-179.4,158-176.2C215.2-87,62.1,65.9,70.6,73.5,78.4,80.5,200-92,210.5-82.5c0,0-136.6,153-136.1,153.5C89.4,84.4,176.2-68.2,189-56.8c6.4,5.7-89.5,90-81.5,97.2,15.7,14.1,98.8-122.7,105-117.1,2.4,2.2-91.4,83.1-81.9,91.6,9.3,8.3,87.8-103.7,90.7-101.1,0,0-124.6,131.3-119.3,136,14.5,13,148.7-181.1,156.3-174.3,7.8,7-194.4,204.4-187.7,210.4,6.4,5.7,169-203.8,176.6-197C262.7-97.1,48.9,81.5,64.1,95.2,68.4,99,255.3-118,255.3-118c1.9,1.7-133.2,143.7-127.6,148.8,1.5,1.4,112.8-130.2,114.9-128.2,8.2,7.3-176.8,202.2-176,202.8,4.9,4.3,149.3-169,150.5-167.9C228-52.9,50.1,96.8,66.9,111.8,84.3,127.5,229.8-69.9,229.8-69.9S119.2,41.9,126.8,48.6C135,56,252.4-114.7,264-104.3c7.3,6.5-159,179.5-158.2,180.2,6.2,5.5,162.5-203.7,173.6-193.7C291.8-106.7,114,66.6,118,70.2,118.2,70.5,244.9-72.7,245.6-72c5.3,4.7-145.1,147-135.2,155.8,4.5,4.1,173-215.8,184.4-205.6C314.4-104.2,63.1,95.4,84.2,114.4c0.9,0.8,203-241,210.2-234.5,0,0-209,232.8-208.1,233.6,12.1,10.8,201.3-254.4,216.1-241C309-121.7,102,95.1,106.2,98.9c0.6,0.5,204.6-228.2,204.6-228.2,10,9-176.5,190.9-172.4,194.6,12.8,11.6,155.8-206.5,172.1-191.9,12.7,11.4-210.4,240.8-209,242.1,15.8,14.1,166.7-220.1,183.7-204.8C295.6-79.9,134.1,62.5,145.1,72.3,158.6,84.2,284.8-83.6,284.8-83.6,297.4-72.3,131,73.3,143,84,156.9,96.5,234.9-35.9,243.6-28.1c15.8,14.2-143.3,150.6-136.7,156.6,11.8,10.6,188.7-247.7,207.2-231.1,6.2,5.5-195.6,222.1-194.8,222.8C130.8,130.7,254.9-44,261.3-38.3c6.9,6.2-132.9,130-120.3,141.2,0.2,0.2,138.5-179,150.7-168.1,0.6,0.5-173.5,191.1-169.6,194.6,9.5,8.5,178.8-223.3,190.6-212.6,8,7.1-182.2,202.4-179.6,204.8C133.7,122.1,256.8-42,269.5-30.6,283.7-17.8,125,102.2,140,115.6,143.1,118.4,275.4-56,285.6-46.8c10.1,9-179.7,193.9-175.5,197.6,7.4,6.7,147.2-191,160.6-179C283.5-16.6,126.5,111.9,138,122.2c17.7,15.9,120.8-158.6,132.7-148C271-25.5,135,105.8,149.2,118.5c11.1,10,169.1-203.3,176.5-196.7,6.6,6-200.1,225.8-199.7,226.2C141.7,162.1,262.4-38.7,279.6-23.3,298.7-6.1,87.2,190.6,87.9,191.3,98.6,200.8,254.5,1.5,256.4,3.3c12.2,10.9-119.3,114.1-109.2,123.2C160.4,138.3,300.1-45.1,300.6-44.6c20.5,18.4-196.2,226.2-195.7,226.7C118.7,194.2,242.2,5.1,254,15.7c8,7.2-153.4,170.8-148.7,175,4.1,3.7,203-250.7,215.1-239.8C332-38.8,154.7,118.8,164.5,127.6c7.9,7.1,101.9-145.8,117.9-131.4,6.6,6-184.2,178-169.9,190.9,18.2,16.3,177-201.9,179.2-200C302.1-3.6,88.7,200,98.2,208.4c19.2,17.2,220-246.7,220.7-246.1C326.4-31,95,188.5,108.9,200.9,110.3,202.1,284.3-9.6,291.7-3c5.5,5-168.8,164.3-154.5,177.1C152.3,187.5,326.7-53,334.7-46c12.8,11.5-182,200.7-179,203.4C157.1,158.6,294-20.2,305.6-9.8,316.5,0,137.7,161.5,149.4,172.1,168.6,189.3,256.6,23.3,271.1,36.4c6.4,5.8-114.4,122.6-111.3,125.4C169.6,170.5,300.3-9.5,307.5-3c16.4,14.7-157.4,166-150.6,172.2C168.4,179.4,282.6-1.7,297.9,12,318.7,30.7,98,224.7,107.4,233.1c6.7,6,156.9-193.2,166-185.1,11,9.9-175.1,170.2-161.2,182.7C130.8,247.4,309.6-2.6,316.2,3.2c0.7,0.6-183.4,186.3-171.9,196.6,2.6,2.3,107.6-154,124.5-138.8,5.6,5.1-131.9,131.8-123.1,139.8,8,7.2,187.6-225.4,195.6-218.2C341.5-17.2,94.2,212.4,118,233.8c9.6,8.6,154.3-210.6,173.5-193.5,3.5,3.2-125.8,149-125.8,149C169,192.2,345-10.7,345-10.7,361,3.7,106,230.6,123,245.8,135.8,257.3,306.5,37.7,308.2,39.3c12.8,11.4-183.5,197-177.4,202.5C141.2,251.3,327.1-.9,338.9,9.6c13,11.7-208.1,222.6-201.5,228.6C152,251.3,306.3,29.9,316.3,38.8c13.2,11.7-146.4,138.1-132,151C200.6,204.5,278,51,295.1,66.3c15,13.4-196.2,191.5-180.6,205.6C124.8,281,323.7,22.6,331.6,29.7,347.4,43.9,166,208.5,171,213c10.5,9.4,138.2-174,148.1-165.1C331.6,59.1,128.4,238,143,251.1,155.1,262,353.2,11.2,356,13.7c12.2,10.9-233.6,232.6-215.3,248.9,4.2,3.7,145.8-162.5,145.8-162.5,15.1,13.5-144.7,155-137.8,161.2C157.1,268.8,314.8,61,322.3,67.7c5.9,5.3-148.5,170.4-148.5,170.4S294,100.8,295.7,102.2c10.8,9.7-116.2,130-114.8,131.2C186.8,238.7,306.3,74.5,315.8,83c15.1,13.5-146.2,145.2-137.2,153.3S328.4,62.6,331.7,65.5c9.2,8.2-189.1,206.1-182.5,212,2.4,2.2,170.4-197.3,174-194,6.2,5.5-110.9,123.3-109.9,124.2,16.1,14.5,94.7-110.1,97-108.1,6.2,5.5-88.4,83.6-80.1,91.2C243,202.4,324.4,69.4,332.5,76.7c10.9,9.8-156.6,169.5-149.8,175.7,8.4,7.5,171.8-218.6,185.2-206.6C380.6,57.2,224.1,179.9,238.7,193c11.5,10.4,101-136.9,113.1-126.1C363.5,77.3,236.7,175,248,185.1c8.8,7.9,37.8-70.9,52-58,6.8,6.1-74.9,84.9-74.1,85.6C234.2,220.1,339,71.3,346.6,78.1c1.6,1.4-134.4,150-133.8,150.6,0.1,0.2,82.8-108.3,90.7-101.2,5.9,5.3-123.9,129.3-116.8,135.6,10,9,149.4-189.7,160.9-179.4,2.2,2-91.8,98.4-88.7,101.1s82.6-102.7,87.9-98c6.6,5.9-127.7,142.2-127.1,142.7,4.5,4,100.9-119.1,104.2-116.2,2,1.8-72.6,77.1-67.5,81.7,6.6,5.9,32.2-55.8,42-46.9,1,0.9-30.3,32.4-29.4,33.2,4.4,3.9,33.4-55.1,42.3-47.1,0.8,0.8-72,84.2-69.4,86.5,9.1,8.2,97.7-123.9,105.2-117.3,12.1,10.8-117.6,128.9-114,132.2,5.9,4.9,111-143.9,120.9-135,2.8,2.5-103.5,104.8-94.9,112.5,7,6.2,118.8-139.7,122.4-136.5,2.1,1.9-106.5,99.5-95.2,109.5,9,8.1,82.2-107.8,90.2-100.6,9,8.1-144.9,161-140.2,165.3,7.2,6.4,105.3-122.6,107.8-120.3,4.5,4.1-80.7,91.9-77.8,94.5,0.7,0.6,76.9-92.9,80.4-89.7,8.9,8-85.8,95.9-81.9,99.4,1.4,1.3,76.8-91.2,79.5-88.7,0.3,0.3-10.3,11.2-10.1,11.3,3.8,3.4,13.9-26.4,19.3-21.5,0.3,0.3-21.7,23.8-20,25.3,3,2.7,19.2-25.1,21-23.4,4.2,3.8-45,53-43.5,54.4,1,0.8.3-7.6,3.9-4.3,1,0.8-12.3,13.2-11.1,14.2,2.8,2.5,32.8-42.7,35.8-40,1.7,1.5-64.3,63.1-57.5,69.2,3,2.7,27.2-38.6,31.3-34.9,0,0,9-6.1,9.5-5.6,0,0,29.8-34.5,30.4-34s-56.6,57.7-52.7,61.2c1.4,1.3,60.2-69.2,61.2-68.3,0.5,0.4-49.1,48.8-45.9,51.8,1.4,1.3,44.6-52.2,45.8-51.1,3.8,3.4-57.6,66.1-57.1,66.6,0,0.1,54.2-65.9,57-63.5,2,1.8-68.2,70.4-64.5,73.7,2.2,1.9,50.7-58.2,51.5-57.5,2.5,2.3-31.3,32.1-29.2,33.9,1.4,1.3,8.2-12.8,9.9-11.1,0.1,0.1-23.7,31.6-22.8,32.5,0,0,77.9-87.4,78.2-87.2,0.9,0.9-37.4,41.6-34.7,44,0.9,0.8,8-9.6,8.3-9.3,0.7,0.6-3.4,10.9-2.9,11.3,0,0,15.4-17.2,15.5-17.2" transform="translate(-14.37 135.69)"/><path class="cls-6" d="M158.4,239.8l-0.3-.1c0.3-1.1,43,16.9,44.2,12.8,0,0-47.6-15.1-47.5-15.3,0.5-1.9,52.4,18,53.4,15,0.2-.4-46.9-14.4-46.7-15,0-.1,8.8-3,8.8-3.1,0.5-1.5-22.1-6-21.8-7.1,0.7-2.3,32.1,5.2,32.3,4.6,0.8-2.7-32.7-10.6-32.7-10.6,0.3-.8-9.3-6-8.9-7.1,0.6-2.1-14.7-2.8-14.1-4.6,2.1-6.4,92.2,33.1,93.8,28.3,0.2-.7-46.8-15.1-46.8-15.1,0.5-1.7-18.8-8-18.7-8.4,0.6-1.9-44.1-11-43.2-14,1.3-4.1,85.3,34.1,87.5,27.5,0,0-44.9-14.4-44.9-14.5s61.2,15.5,61.5,14.6c0.2-.7-84.3-25.4-83.7-27,0.8-2.4,74.3,29.4,76.2,23.3,1.1-3.3-61.2-15.9-60.1-19.4,1.6-5,64.7,18.7,64.9,17.8,0.1-.3-67.7-16.1-66.1-21.3,0.1-.4,122.7,40.9,123.8,37.6,0.4-1.3-129.1-40.8-128.9-41.6,1.1-3.4,78.6,29.8,80.9,22.6,1.1-3.5-49.6-13.2-48.7-15.7,0.4-1.2,44.4,11,45,9,1.1-3.5-44.7-10.6-43.6-14.1,2.5-7.7,91.5,31.4,92.3,29.1,0,0-92.4-21.3-89.9-29,3.1-9.6,106.4,38.9,108.4,32.5,0.7-2.3-120.5-34-119-38.4,0.9-2.6,28.6,6.7,28.8,6.3,1.1-3.6-112.9-27.2-110.3-35.6,5.3-16.3,165,62.9,169,50.6,0.5-1.7-131.7-31-128.3-41.4,1.4-4.2,76,26.7,77.6,21.8,3.5-10.9-109.7-28.9-107.8-34.8,2.7-8.3,198.5,76.5,203.7,60.5,0.7-2.2-206.6-56.8-203.8-65.7,4-12.4,149,61.3,153.6,46.9,4-12.5-78.5-20.5-77.1-24.8,0.5-1.7,45.9,14.8,46.5,12.9,1.2-3.8-54-9.2-51.7-16.7,0.2-.5,71.9,20.9,72,20.4,4.2-13-78.3-22.3-77.4-25,2.2-6.9,119.9,41.5,122.2,34.5,2.9-8.9-167.4-47-165.4-53.3,4.7-14.6,213.3,80.2,217.3,67.7,0.4-1.4-224.2-60.8-220.8-71.2,3.6-11.3,160.3,56.7,162.6,49.5,0.5-1.2-128.4-28.6-124.6-40.3,2.1-6.8,108.6,43.5,112.1,32.7,2.3-7.2-103.8-31.7-103.2-33.3,1.9-5.9,152.2,51.9,153.6,47.5,5.1-15.6-140.6-27.7-135.4-43.7,0.8-2.4,93,32.5,94,29.4,4.9-15.2-95.9-27.1-94.8-30.6,1-3.1,84.2,25.4,84.2,25.2,5-15.4-91.3-15.7-87.3-28.1,4.7-14.6,158.1,61.9,161.9,49.8,1-2.6-274-68.2-268-86.9,2.5-7.7,238.9,102.3,246.4,78.9,2.5-7.8-216.5-68.7-216.2-69.8,6.6-20.5,244.3,82,245.7,77.9,4.5-13.9-231.5-56.4-226.2-73C120,127.6,321,195,321,195c5.3-16.3-145.6-38.8-143.2-46.2,1.6-5.1,166.7,62.5,170.1,52,2.4-7.6-202.9-44.7-196.8-63.5C155.7,123,320,202.1,323,192.7c4.8-14.8-233.7-73.6-233.2-75.2,4.8-15,166.9,63.6,169.9,54.5,2.4-7.6-90.7-11.1-85.4-27.6,0.9-2.9,124.6,37.6,125.2,35.5,4.4-13.7-225.6-61.6-222.3-71.7,2.2-6.8,241.9,74.6,241.9,74.6,6.3-19.5-202-45-196.1-63.3,2.8-8.5,193.3,75.6,198.2,60.8,4.5-14.1-227.9-73.4-227.9-73.4,4.4-13.6,204.2,65.5,204.2,65.5,2.1-6.6-202.4-45.4-196.6-63.4,0.7-2.2,270.4,98.8,273.9,88.1,2.2-7-209.7-67.6-209.7-67.6,3.8-11.9,138,42.9,138,42.5,1.6-5-141.1-34.3-137.8-44.5,2.6-7.9,140.6,51.9,143.6,42.5,0.2-.8-223.2-72-223.2-72,7.7-23.7,290.3,112.1,296,94.4C386.8,176.4,85.8,97,85.8,97c5.9-18.3,213.6,70.5,215.1,65.7,1.9-5.8-227.7-49-220.6-71.2,2.5-7.7,256.8,97.1,262.7,79,4.7-14.6-243.8-51-235.7-76.1,5.5-17,276.9,99,281.4,84.9C388.8,179.2,71,76.8,71,76.8c8.5-26.4,275.8,102,280.5,87.6,2.6-8-210.9-56.9-207.7-67,4.8-15,212.7,69.8,213.9,66.2,0,0-304.2-77.1-298-96.1,8.1-25.1,310.4,123.8,318.2,99.7,0,0-276-88.5-275.9-89C106.9,63,371.1,182,377.4,162.9c5.2-16-253.5-61.1-247.5-79.8,6.5-20,219,80,222.1,70.6,2.4-7.5-191.8-59.5-191.1-61.7,4.5-14,137.2,50,139.3,43.6,6.7-20.8-188.6-39.1-182.3-58.8,3.7-12,258.7,93.3,261.8,83.6,4-12.2-285.3-83.7-282.8-91.3,6.2-19.3,241.5,85.1,244.9,74.6,2.3-7.2-221.3-61.7-218.5-70.4,4.7-14.4,240,82.7,242.5,75,0.3-.9-233.4-56.6-227.9-73.6,3.4-10.9,186.8,66.9,189.7,57.9,1.7-5.1-205.9-47.8-200.5-64.7,2.9-9,256.1,94.3,259.8,82.7,1.7-5.3-243.8-52.7-236.2-76.3,2.8-8.6,214.2,92,221.5,69.5C378.6,124.5,97.5,73,102.7,57c0.6-1.8,277.1,94.7,278.8,89.6,6.8-21.1-335.3-95.4-331.6-107,6.6-20.4,306.1,93.5,306.3,93,0,0-275.3-78.5-272.3-87.9C85.9,38.4,350,144,354.5,130c7.8-24.2-242.1-70.4-239.9-77.4,7.3-22.5,268.9,106.3,275.1,87.3,1.7-5.4-346-98.7-342.2-110.4,2.4-7.4,235.2,86.7,239.1,74.4,0,0-243-64.6-239-77.1,2.5-7.7,319.7,110.1,322.4,102,6.1-19-335.5-105.6-334.7-108,0,0,272.1,95.8,274.8,87.3C313.9,96,77.4,40.6,79.7,33.5c0,0,297.2,99.2,298.8,94.4,6.9-21.4-236.6-68.3-234.2-75.6,5.2-16,247.7,81.6,248.3,79.8C399.8,109.6,33.4,32.5,38.2,17.6,47-9.7,314.8,106.6,316,103,322.9,81.5,90.3,58.2,98.5,32.9c8.3-26,273.3,88,274.5,84.2,3-9.3-247.8-57-241.1-77.8,5.4-16.7,169.3,58.4,171.2,52.4C306.6,81,132.8,64.9,141,39.4c0-.2,240,100.8,247.4,78,0.3-.9-319.8-101.9-319.4-103C72.4,3.9,282.4,80.6,282.4,80.6c0.3-.9-203.7-61.9-202.5-65.4C81.4,10.5,317.6,116,325.6,91.4c0-.1-285.9-77.2-281.5-90.8,0,0,319.3,113.4,323.8,99.6C368,99.6,41-1,42.2-4.8c0.5-1.7,261.2,99.3,265.9,84.6,4-12.5-202.3-47.3-197-63.6,4-12.5,162.2,62.4,166.5,48.9,7.9-24.3-149.5-24.2-142.5-45.9,2.2-6.7,180.1,67.3,183.2,57.7C322.5,63.7,40,5.4,45.4-11.1c2.9-9,312.6,121.8,320,98.7C367.3,81.8,70.1,18,77.6-5.3c0,0,263.9,112.9,272.9,84.8C355.6,63.8,71.1,2.2,74.9-9.5c4-12.4,261.2,109.7,269.5,83.9,8-25-319.6-84.2-314-101.3C37.8-50.1,338,106.7,348.6,73.6,351.7,64,94.1,16.7,101.5-6.1c1.7-5.1,180.7,54,181.1,52.8C289.4,25.7,30-33.5,30.4-34.7,34.8-48.5,352.8,90.1,360.1,67.7c1-3-335-102.7-333.5-107.6C31.3-54.5,314.4,66.7,319.3,51.6c0.8-2.5-275-70.4-269.6-87C57.5-59.6,318.5,68.4,324,51.1c0.3-.9-215.6-59.5-212.6-68.6,0.6-2.1,226.4,87.2,231.8,70.3,2.2-6.5-333-89-327.6-105.7C18-60.3,329.8,54.5,332.5,46.5,336.4,33.7,83.6-18.1,88.2-32.4c8.3-25.8,247.5,77.2,247.5,77.2C336,43.6,87.9-22.1,91.7-34c1.4-4.2,204.8,62.5,205.1,61.6C300,18.1,55.3-48.6,55.7-50.1c8.8-27.1,270.7,108,277.4,87.2C341.5,11.2,9-47.8,14.8-65.6c8.3-26,277.2,96.8,280,88.1C299,9.3,65.2-34.6,70.2-50c7.2-22.2,250,80.3,251,77.5C328,6.5,102.6-32.8,105.6-42,108.5-51,269.3,15.3,272,6.9c4.2-13.2-159-40.4-155.8-50.3C122.2-62.3,314,15.1,314,15.1S45.1-47.5,52.1-69.4c2.4-7.4,209.4,83.6,214.8,66.7C273.6-23.6,72.3-52,76.3-64.3,79.9-75.4,286.7,9.6,289.7.2c3.1-9.7-188.2-51.9-185.6-59.9,3.5-10.6,211.4,69.9,213,65C320.8-6.3,147-41.5,149.4-48.9c2.1-6.5,124,43.3,126.3,36,1-3-117.9-19.6-112.6-36.3,1.8-5.7,88.6,26.8,89.6,23.6,2.5-7.5-162.2-46-160.4-51.7C97.9-94.6,265-21.5,266-24.9c0,0-102.5-26.7-100.6-32.5C169-68.6,275-13.8,278-22.9,283.6-40.2,84.2-71.6,88.2-84.1,92.6-97.6,352.2,9.3,355.1.3c0.5-1.7-168.3-44.5-165.5-53.4,1.8-5.7,79.9,34.5,82.6,26.1,0.5-1.6-97-17.3-92.9-30C184.9-74.6,351.9,0,352.8-2.6L112.3-80.3c3.2-10,158.7,57.6,161.6,48.4,0.7-2.1-140.6-36.6-138.1-44.6,0,0,191,60.7,192.4,56.2,4.3-13.4-171.1-42.8-167.5-54.1,1.5-4.6,93.3,28.1,94.1,25.7,1.4-4.4-71.4-22.1-71.1-23C188.5-86.4,346-14.9,347.9-20.8c1.5-4.5-181.2-46.7-177.8-57.3C172.3-84.8,339-19.7,341.3-27c0.7-2.3-175-49.8-173.1-55.8,2.5-7.7,78.7,21.6,79.2,20.3,3.2-9.9-29.1.5-26.2-8.4,2.7-8.3,98.3,33.4,99.2,30.2,3.6-11.2-147.5-40.9-145.6-47S291.4-53.2,291.4-53.2c1.4-4.3-78.3-19.6-76.6-24.8C218.2-88.6,341.2-35.6,342-38c0-.2-153.2-43.8-151.5-48.9,1.1-3.3,44.5,13.6,44.6,13.6,0.8-2.7-85.5-27.4-85.4-27.6,1.4-4.4,140.8,47.1,142.2,42.9,0.1-.4-86-26.4-85.5-27.6,0.9-2.6,35.8,10.7,36.5,8.5,0.5-1.5-66.3-13.9-64.2-20.7,0,0,98.7,30.1,99.1,28.9,1.4-4.2-101.4-26.3-99.6-32.1,0.5-1.6,56,24,57.9,18.2,2.5-7.9-14.8-3.1-14.3-4.6,0.1-.3,3.5.1,3.5-0.2,1.2-3.7-23.7-6.7-23.4-7.6,0.7-2,115.9,37.3,116.1,36.7,1.8-5.8-105.5-34-105.5-34,1.9-6,96.4,41.9,99.8,31.5,1.5-4.5-77.1-20-75.7-24.4,2.6-8,90.9,27.3,91.6,25.2,0.5-1.4-63.3-14.8-61.6-19.9,0.4-1.4,26.6,10,27.4,7.8,0.1-.5-29-9.4-29-9.4,0.5-1.7,20.7,5.5,20.9,4.8,0.6-2.1-40.9-10.2-40-12.9,0-.1,74.8,23.5,74.8,23.5,1.4-4.3-72.5-19.2-71.2-23,0.4-1.1,41.1,10.6,41.4,9.5,1.7-5.2-123.2-33.8-121.5-39.2,1.2-3.8,75.9,23.2,77,19.6,0-.2-59.8-17.9-59.4-19.2,1.1-3.4,73,24.5,74.6,19.6,1-3.2-43.8-12.9-43.4-14,0.9-2.9,88.5,26.8,88.8,26s-15.1-3.1-14.6-4.7c0.1-.3-14-7.7-13.9-8.3,0.6-1.9-33.2-8.2-32.4-10.4s23.8,5.1,23.8,5c0.5-1.6-17.4-4.7-17.2-5.5,1-3.1,63.4,20.6,64.7,16.5,0.2-.6-112.1-35.4-111.9-36.1,1.2-3.7,60.7,18.1,61.3,16a8.45,8.45,0,0,1-1.7-.5c1.7-5.2,54.7,17.6,54.9,17.2,0-.1-68.1-21.9-68.1-21.9s52.8,17.3,52.9,16.8l-35.7-11.5" transform="translate(-14.37 135.69)"/></g></g><path class="cls-7" d="M302.8,39.6c2.8,39.4-6,66.7-39.5,97.8S160,172.7,160,172.7M302.8,39.6C234.2,18.9,198.4,53.5,198.4,53.5,135.7,98.7,160,172.7,160,172.7" transform="translate(-14.37 135.69)"/><path class="cls-8" d="M147.8,264.2S122.1,133.8,269.6,58.8" transform="translate(-14.37 135.69)"/></svg>