<svg width="79" height="226" viewBox="0 0 79 226" fill="none" xmlns="http://www.w3.org/2000/svg">
<path d="M73.1701 3.12009C73.111 1.65414 74.1063 0.411979 75.393 0.345654C76.6798 0.27933 77.7709 1.41395 77.8299 2.87991L73.1701 3.12009ZM1.73101 214.163C0.579829 213.504 0.115174 211.906 0.693176 210.595L10.1123 189.231C10.6903 187.92 12.092 187.392 13.2432 188.051C14.3944 188.711 14.8591 190.308 14.2811 191.619L5.90854 210.609L22.5838 220.16C23.7349 220.819 24.1996 222.416 23.6216 223.727C23.0436 225.038 21.6418 225.566 20.4906 224.907L1.73101 214.163ZM77.8299 2.87991C80.5893 71.3634 73.2073 119.963 59.526 153.592C45.8091 187.309 25.776 205.921 3.51144 214.312L2.04372 209.266C23.0016 201.368 42.0797 183.835 55.2934 151.355C68.5427 118.787 75.9107 71.1366 73.1701 3.12009L77.8299 2.87991Z" fill="#219E4A"/>
</svg>
