<svg width="83" height="188" viewBox="0 0 83 188" fill="none" xmlns="http://www.w3.org/2000/svg">
<path d="M22.1851 4.69442C22.6539 3.39003 22.0556 1.79785 20.8488 1.13819C19.642 0.478525 18.2836 1.00118 17.8149 2.30558L22.1851 4.69442ZM81.8114 169.871C82.6332 168.838 82.4884 167.162 81.488 166.129L65.1854 149.285C64.185 148.252 62.7078 148.252 61.886 149.285C61.0642 150.319 61.209 151.995 62.2094 153.028L76.7006 168L64.797 182.972C63.9752 184.005 64.12 185.681 65.1204 186.715C66.1208 187.748 67.598 187.748 68.4198 186.715L81.8114 169.871ZM17.8149 2.30558C6.28212 34.3967 -3.31009 76.0938 2.51237 110.005C5.44175 127.066 12.311 142.355 24.9458 153.335C37.5435 164.283 55.5281 170.647 80.2287 170.647L79.7713 165.353C55.7219 165.353 38.9565 159.154 27.5698 149.259C16.2202 139.395 9.87075 125.559 7.11263 109.495C1.56009 77.1562 10.7179 36.6033 22.1851 4.69442L17.8149 2.30558Z" fill="#219E4A"/>
</svg>
