<svg width="172" height="173" viewBox="0 0 172 173" fill="none" xmlns="http://www.w3.org/2000/svg">
<path d="M10.4048 3.97025C10.7658 2.63557 9.98182 1.25343 8.6537 0.883147C7.32558 0.512868 5.95625 1.29467 5.59523 2.62936L10.4048 3.97025ZM171.111 152.202C171.842 151.033 171.49 149.483 170.325 148.74L151.328 136.642C150.163 135.899 148.625 136.245 147.893 137.414C147.161 138.584 147.513 140.134 148.679 140.876L165.564 151.631L154.966 168.568C154.234 169.737 154.586 171.287 155.752 172.03C156.917 172.772 158.455 172.426 159.187 171.257L171.111 152.202ZM5.59523 2.62936C-4.04036 38.251 -1.46127 84.4641 22.9378 117.602C47.5199 150.989 93.6753 170.376 169.556 153.305L168.444 148.41C93.8244 165.197 49.9797 145.926 26.9369 114.63C3.71098 83.0848 1.04017 38.5902 10.4048 3.97025L5.59523 2.62936Z" fill="#219E4A"/>
</svg>
