<svg width="269" height="169" viewBox="0 0 269 169" fill="none" xmlns="http://www.w3.org/2000/svg">
<path d="M6.94269 3.22383C7.22748 1.87236 6.36472 0.540159 5.01566 0.248267C3.6666 -0.0436248 2.3421 0.81533 2.05731 2.1668L6.94269 3.22383ZM268.199 146.901C268.852 145.686 268.397 144.166 267.182 143.506L247.393 132.743C246.178 132.083 244.665 132.532 244.012 133.747C243.359 134.962 243.814 136.482 245.028 137.142L262.619 146.709L253.161 164.304C252.508 165.519 252.963 167.039 254.178 167.699C255.392 168.36 256.906 167.91 257.559 166.696L268.199 146.901ZM2.05731 2.1668C-1.00375 16.6929 1.1209 36.9169 9.10638 58.0117C17.1108 79.1568 31.0754 101.376 51.9506 119.885C93.8132 157.003 163.064 178.873 266.719 148.106L265.281 143.304C162.936 173.683 95.5694 151.892 55.2482 116.141C35.0314 98.2156 21.5125 76.6981 13.7734 56.2539C6.01526 35.7597 4.13619 16.542 6.94269 3.22383L2.05731 2.1668Z" fill="#219E4A"/>
</svg>
