<svg width="268" height="217" viewBox="0 0 268 217" fill="none" xmlns="http://www.w3.org/2000/svg">
<path d="M254.125 3.56542C253.704 2.25029 254.425 0.835271 255.737 0.404882C257.048 -0.0255068 258.453 0.691716 258.875 2.00685L254.125 3.56542ZM0.434761 197.24C-0.337859 196.099 -0.039546 194.539 1.10104 193.757L19.6884 181.013C20.829 180.231 22.38 180.523 23.1526 181.664C23.9252 182.806 23.6269 184.365 22.4863 185.147L5.96422 196.475L17.1558 213.011C17.9284 214.153 17.6301 215.712 16.4895 216.495C15.3489 217.277 13.7979 216.985 13.0253 215.843L0.434761 197.24ZM258.875 2.00685C273.56 47.8131 270.611 108.434 233.004 151.918C195.307 195.507 123.474 221.111 2.02886 198.287L2.97116 193.361C123.527 216.018 193.193 190.33 229.246 148.643C265.389 106.852 268.44 48.2142 254.125 3.56542L258.875 2.00685Z" fill="#219E4A"/>
</svg>
