
<svg width="75" height="168" viewBox="0 0 75 168" fill="none" xmlns="http://www.w3.org/2000/svg">
<path d="M12.8937 3.67578C13.1318 2.30865 12.2532 0.89782 10.9312 0.524597C9.60915 0.151374 8.34442 0.957093 8.1063 2.32422L12.8937 3.67578ZM74.6617 146.373C75.2774 145.175 74.8086 143.59 73.6147 142.832L54.1593 130.479C52.9654 129.721 51.4985 130.077 50.8828 131.274C50.2671 132.472 50.7359 134.057 51.9298 134.815L69.2235 145.795L60.3055 163.14C59.6899 164.337 60.1586 165.922 61.3525 166.68C62.5464 167.438 64.0133 167.082 64.629 165.885L74.6617 146.373ZM8.1063 2.32422C3.2702 30.0896 -2.966 71.313 3.04129 103.044C6.05181 118.946 12.228 132.962 23.6658 141.55C35.1391 150.164 51.2629 152.839 73.2403 147.504L71.7597 142.496C50.4871 147.661 36.0234 144.797 26.2468 137.457C16.4346 130.089 10.6984 117.735 7.80894 102.473C2.01631 71.8756 8.03011 31.599 12.8937 3.67578L8.1063 2.32422Z" fill="#219E4A"/>
</svg>
