<?xml version="1.0" encoding="utf-8"?>
<!-- Generator: Adobe Illustrator 19.2.1, SVG Export Plug-In . SVG Version: 6.00 Build 0)  -->
<svg version="1.1" id="Layer_1" xmlns="http://www.w3.org/2000/svg" xmlns:xlink="http://www.w3.org/1999/xlink" x="0px" y="0px"
	 viewBox="0 0 1208 483.7" style="enable-background:new 0 0 1208 483.7;" xml:space="preserve">
<style type="text/css">
	.st0{fill:#FFFFFF;stroke:#FFFFFF;stroke-width:3;stroke-linecap:round;stroke-linejoin:round;}
	.st1{fill:#FFFFFF;}
	.st2{fill:#FFFFFF;stroke:#55BB72;stroke-width:6;stroke-linecap:round;stroke-linejoin:round;}
	.st3{fill:none;stroke:#FF00FF;stroke-width:2;stroke-linecap:round;stroke-linejoin:round;}
	.st4{opacity:0.5;}
	.st5{clip-path:url(#SVGID_2_);}
	.st6{fill:none;stroke:#4CBB17;stroke-width:0.5;stroke-linecap:round;stroke-linejoin:round;}
	.st7{fill:none;stroke:#55BB72;stroke-width:0.7;stroke-linecap:round;stroke-linejoin:round;}
	.st8{clip-path:url(#SVGID_4_);}
	.st9{fill:none;stroke:#55BB72;stroke-width:0.5;stroke-linecap:round;stroke-linejoin:round;}
	.st10{fill:url(#SVGID_5_);stroke:#55BB72;stroke-width:6;stroke-linecap:round;stroke-linejoin:round;}
	.st11{fill:url(#SVGID_6_);stroke:#55BB72;stroke-width:6;stroke-linecap:round;stroke-linejoin:round;}
	.st12{fill:none;stroke:#55BB72;stroke-width:6;stroke-linecap:round;stroke-linejoin:round;}
	.st13{fill:url(#SVGID_7_);stroke:#55BB72;stroke-width:6;stroke-linecap:round;stroke-linejoin:round;}
	.st14{clip-path:url(#SVGID_9_);}
	.st15{fill:url(#SVGID_10_);stroke:#55BB72;stroke-width:6;stroke-linecap:round;stroke-linejoin:round;}
	.st16{fill:none;stroke:#F7931E;stroke-width:5;stroke-linecap:round;stroke-linejoin:round;}
</style>
<g>
	<path class="st0" d="M742.3,54.5c49.8,0,91.1,6.8,130.7,43.3c37.7,34.8,33.4,112.5,33.4,112.5"/>
	<path class="st0" d="M742.3,54.5c0,0-4.7,52.3,38.3,108.3s125.7,47.5,125.7,47.5"/>
</g>
<path class="st1" d="M1207.3,26.8c-5.9,53-24.2,87-76.3,120.1c-52,33.1-145.6,21.8-145.6,21.8 M1207.3,26.8
	c-86-44.2-141.9-7-141.9-7c-94.1,44.7-79.9,148.9-79.9,148.9"/>
<path class="st0" d="M92.8,420.9h180v61H3.8v-62.5c0,0,76-92,143-176.7s61-79.8,61-102.3S190.5,75.6,138,75.6
	c0,0-63.5,1.4-63.5,67.4H5.8c0,0,8.5-138.2,137.4-138.2s133,132.6,133,132.6s-1.1,48.7-32.7,89S92.8,420.9,92.8,420.9z"/>
<title>Logo 2Grow</title>
<path class="st2" d="M430,300.7v43h67.5c0,0-1,60-26.8,73.3c-19.4,10-102.7,14.4-103.9-30.8c-1.3-48.7-1.8-133.5-1.8-133.5
	s14.3-50.3,63.5-50.3s60.5,46.3,60.5,46.3h54c0,0-19.8-99.3-113.2-99.3S317,243,317,248.7v116.7c0,31.9,12.6,62.8,35.7,84.9
	c17.3,16.6,42.2,30.2,77.3,30.2c57.9,0,88-39.7,102.2-68.1c7.1-14.5,10.9-30.4,10.8-46.5v-65.1L430,300.7L430,300.7z"/>
<path class="st2" d="M572.5,480.2h46V328.6c-0.1-8.7,2.9-17.2,8.4-23.9c6.2-7.5,16.5-15,32.7-15c32.3,0,36.4,11.7,36.4,11.7l34.9-38
	c0,0-19.5-20-52.5-20s-59.8,28-59.8,28v-23.1h-46L572.5,480.2L572.5,480.2z"/>
<polygon class="st2" points="968,313.1 931.3,319.9 980.7,480.4 1012.4,480.4 1059.8,333.1 1105.6,480.4 1140.5,480.4 1204.2,277.8 
	1159.7,283.8 1124.9,406.1 1084.6,295.3 1034.7,303.2 997.1,408.6 "/>
<path class="st3" d="M430,426.3"/>
<g class="st4">
	<g>
		<g>
			<g>
				<defs>
					<path id="SVGID_1_" d="M1207.3,26.8c-5.9,53-24.2,87-76.3,120.1c-52,33.1-145.6,21.8-145.6,21.8 M1207.3,26.8
						c-86-44.2-141.9-7-141.9-7c-94.1,44.7-79.9,148.9-79.9,148.9"/>
				</defs>
				<clipPath id="SVGID_2_">
					<use xlink:href="#SVGID_1_"  style="overflow:visible;"/>
				</clipPath>
				<g class="st5">
					<path class="st6" d="M912.3-142.4c0.1-0.1,0.2-0.1,0.3-0.2c0.8,1-3.9,12.2-3.5,12.7c0.2,0.3,78.8-62.3,79.5-61.5
						c1.5,1.9-77.9,60.6-74,65.6c1.6,2,26-21.6,26.8-20.7c4.7,6-56.4,49.8-54.7,52.1c2.1,2.6,55.9-47.4,58-44.8
						c3.2,4.1-46.6,40.4-44.4,43.4c1.4,1.8,76.8-67.8,80.8-62.5c6,7.7-115.3,89.4-110.6,95.6c4.4,5.7,92.5-75,94.2-72.8
						c5.1,6.6-114.9,72.1-106.4,83c2.2,2.9,164.8-136.2,169-130.7c8.2,10.7-175.8,135.2-172.4,139.6
						c6.4,8.3,183.7-145.6,185.4-143.4c4,5.3-122,85.7-113.3,96.9c0,0,108.3-93.4,113-87.4c8.3,10.9-177.1,137.8-175,140.6
						c6,7.7,153.6-132.5,160.2-123.9c0,0-107.9,89.6-107.4,90.2c0,0,117-104.8,124-95.8c0,0-161.9,115.2-151.8,128.2
						c2.1,2.7,206.7-175.7,214.4-165.8c9.8,12.6-153,116.7-151.8,118.2c3.8,5,153.2-121.6,154.6-119.6
						c2.7,3.5-224.5,147-207.8,168.6c4.2,5.4,213.9-166.7,214.5-165.9C1122.6-191.1,909-43,910.3-41.2
						c2.6,3.3,216.6-178.5,221.9-171.6c12.2,15.8-212.9,137.3-196.9,158c10.6,13.8,89.8-84.4,97-75c2,2.7-121.5,82-113.6,92.1
						c2.3,3,156.1-141.4,166.2-128.5c1.2,1.6-228.4,151-212.6,171.4c10.6,13.8,172.9-141.1,176.5-136.5
						c2.7,3.4-101.7,66.6-95.7,74.4c6.7,8.8,198.6-155.9,199.7-154.4c13.7,17.6-230.1,168.2-224.5,175.5
						c6.2,8.1,197.4-169.1,205.3-158.8C1152.5-170.2,885.9-19.9,895.8-7c5.9,7.5,252.2-211.1,260-201.1
						c9.4,11.8-294.3,220.7-289.7,226.6c11.1,14.3,169-156.4,181.5-140.3c6.7,8.5-179.7,143.8-178.4,145.6
						c7.2,9.3,304.7-252.7,312.9-242c9.3,12-232.3,160.4-221.2,174.8c8.2,10.6,144.8-138.5,157.7-122
						c18.4,23.8-234.5,175.3-231,179.8c14.4,18.6,198.9-184,213.5-165.1c10,13-241.1,169.2-232.7,180
						c3.7,4.8,248.7-200.4,252.6-195.4c2.7,3.5-237.8,169-228.3,181.2c8.7,11.2,212.1-188.1,223.7-173c0,0-218.6,169.8-218,170.6
						c16.6,21.5,169-159.9,183.1-141.7c7.1,9.1-140.7,97.6-131.8,109.1c17.4,22.5,161-138.8,167.9-129.8c2.7,3.6-141.6,88-131,101.6
						c10.3,13.2,141.8-116.2,145-112.1c0,0-197.3,143.9-191.4,151.4C956,11.9,1181.4-213,1189.9-202
						c8.7,11.2-307.7,223.9-300.4,233.4c7.1,9.1,273.9-229.2,282.3-218.4c17.3,22.5-310.1,207.4-293.2,229.2
						c4.8,6.1,305.6-236.4,305.6-236.4c2.1,2.7-211.8,158.3-205.5,166.4c1.7,2.2,181.3-145.3,183.8-142.2
						c9.1,11.7-283.8,225.2-283,226.2c5.4,6.9,239.3-187.9,240.7-186.2c12,15.7-260.5,171-241.9,195
						c19.3,25,260.4-201.5,260.4-201.5S964.7-15,973.2-4.2c9.1,11.8,206.5-186.1,219.3-169.6c8.1,10.4-254.7,199.4-253.8,200.6
						c6.9,8.9,265.2-230.7,277.6-214.7c13.7,17.7-264.5,204.4-260,210.2c0.3,0.4,203.2-158.7,204-157.7
						c5.9,7.6-228.3,159.7-217.4,173.9c5,6.5,282.2-244.2,294.8-227.9c21.8,28.1-360.3,231.9-337,262.1c1,1.3,328.1-270.4,336.1-260
						c0,0-334.1,258.1-333.1,259.4c13.5,17.4,329.2-288.5,345.6-267.2c7.2,9.3-320.2,246.6-315.5,252.6c0.6,0.8,327.1-253,327.1-253
						C1272-181.2,980.2,14.9,984.7,20.7c14.2,18.5,257-236,275.1-212.8c14.1,18.2-337.9,268.3-336.4,270.3
						c17.5,22.6,274.8-251.5,293.7-227.1c11.5,15-237.4,164.7-225.2,180.3c14.9,19.4,223.2-172.6,223.2-172.6
						c14,18.1-242.3,170.8-228.9,187.9C1001.6,66.6,1137.3-90,1147-77.6C1164.4-55,920,87.3,927.3,96.9
						c13.1,16.9,310.8-282.7,331.2-256.2c6.9,8.9-313.7,247.1-312.8,248.1c12.9,16.7,220.1-184.8,227.2-175.7
						c7.7,9.9-208,140.1-194,158.1c0.2,0.3,227.4-203.9,241-186.3c0.6,0.8-276.8,211.3-272.5,216.9
						c10.5,13.6,291.6-252.7,304.7-235.6c8.8,11.4-291.1,224.2-288.2,228.1c0.6,0.8,203.9-187,218.1-168.7
						c15.8,20.5-224.1,141.1-207.5,162.5c3.4,4.5,221.5-194.7,232.8-180.1c11.1,14.4-285.7,213.5-281.1,219.5
						c8.2,10.7,241.9-217.6,256.7-198.5C1197-52.7,957.4,79.5,970.1,96c19.6,25.4,199-181.1,212.1-164.1
						c0.4,0.5-212.1,141.6-196.3,161.9c12.4,16,274-228.6,282.2-218.1c7.4,9.6-320.6,250.9-320.1,251.6
						c17.4,22.5,226.5-214.5,245.5-189.9c21.2,27.4-307.4,236.9-306.6,238c11.8,15.1,267.4-211.3,269.5-208.5
						c13.3,17.7-186.3,122.6-175,137.1C996,122.9,1226-86.4,1226.6-85.6c22.7,29.4-315.5,252.4-315,253.2
						C926.9,187,1137-33.9,1150.1-16.9c8.8,11.5-245.2,189.2-240,196c4.5,5.9,330.5-283.2,343.9-265.9
						c12.7,16.5-260.9,182.5-250,196.5C1012.8,121,1174.8-59,1192.4-36c7.4,9.6-287.8,191.4-271.9,211.9
						C940.7,202,1204.6-49,1207-45.9c11.5,14.9-321.2,233-310.7,246.5c21.3,27.5,352-273.7,352.8-272.8
						c8.3,10.7-352.2,245.6-336.8,265.5c1.6,2,284.1-236.6,292.3-226c6.1,8-264.1,176.8-248.1,197.4
						c16.6,21.5,306.8-255.3,315.6-244.1c14.2,18.4-290.4,222-287,226.3c1.6,2.1,226.8-201.9,239.6-185.2
						c12.1,15.6-264.6,186.4-251.6,203.3c21.3,27.5,178.5-171.3,194.6-150.5c7.1,9.2-181.6,134.8-178.2,139.3
						c10.9,14.1,228.2-193,236.1-182.6c18.2,23.6-249.4,182-241.8,191.8c12.7,16.4,208.4-196.1,225.4-174.2
						c23.1,29.9-317,233.6-306.6,247c7.5,9.6,255.3-218.1,265.4-205.2c12.2,15.8-273.9,183.2-258.5,203.1
						c20.6,26.7,318.8-261.6,326.1-252.2c0.7,0.9-288.7,202.5-276,219c2.9,3.7,180.3-178.2,199-153.9
						c6.2,8.1-207.2,142.8-197.4,155.5C970.1,213.6,1265-51.3,1274-39.8c0.2,0.3-383.9,244.8-357.5,278.9
						c10.6,13.7,256-242,277.3-214.5c3.8,5-203.3,167.1-203.3,167.1c3.7,4.7,286.6-221.7,286.6-221.7C1294.9-7,901.2,232,920,256.3
						c14.2,18.4,294.2-231.4,296.1-228.9c14.2,18.3-291.5,216.7-284.7,225.5C943,268,1251.2-21.4,1264.3-4.5
						c14.4,18.6-330.4,244.7-323.1,254.3c16,21.1,274.8-235.2,285.8-220.9c14.7,18.8-227.9,147.6-211.9,168.3
						c18.1,23.4,158.2-161.4,177.1-137c16.6,21.5-307,206.4-289.7,228.9c11.5,14.6,338.4-280,347.1-268.5
						c17.5,22.7-263.3,196.8-257.7,204c11.6,15,225.8-197.2,236.8-183c13.8,17.9-299.4,205.9-283.2,226.9
						c13.4,17.4,337.4-267.2,340.4-263.3c13.5,17.5-366.6,251.8-346.3,277.9c4.6,5.9,233-180.1,233-180.1
						c16.8,21.6-229.8,170.5-222.1,180.3c9.3,12.1,269.3-225.4,277.6-214.6c6.5,8.4-238.6,189.9-238.6,189.9s192.9-153,194.8-150.6
						c12,15.5-185.9,144.2-184.3,146.2c6.5,8.4,205.1-180.4,215.7-166.8c16.8,21.6-229.4,157.1-219.5,170
						c9.9,12.8,241.1-194,244.8-189.4c10.2,13.2-301.2,227.4-293.9,236.9c2.7,3.6,274.2-220.3,278.1-215.1
						c6.9,8.9-177.3,136.6-176.2,138.1c17.9,23.1,152.6-123.1,155-119.9c6.8,8.8-137.7,89.4-128.4,101.5
						C1089.9,228,1230.3,71.3,1239.3,83c12.1,15.6-249.2,186.8-241.6,196.7c9.3,12.1,281.2-248.3,296.1-229
						c14.1,18.2-223.4,142.9-207.3,163.8c12.7,16.5,167.4-157.1,180.8-139.8c13,16.8-179,115.6-166.5,131.6
						c9.8,12.7,67.4-84.8,83.2-64.4c7.6,9.8-120,94.4-119.2,95.6c9.2,11.9,184.6-160.1,193-149.3c1.8,2.3-214.9,166.4-214.2,167.3
						c0.1,0.3,136.2-123.6,145.1-112.2c6.6,8.5-195.9,141.4-188.1,151.4c11,14.3,244.5-215.4,257.2-198.9
						c2.5,3.2-145.8,108.2-142.4,112.5c3.3,4.2,134.6-116.2,140.5-108.6c7.3,9.5-204.1,157.6-203.5,158.4
						c5,6.4,163-133.5,166.6-128.8c2.2,2.8-115.1,84.6-109.5,91.9c7.3,9.5,56.3-66.2,67.2-52c1.1,1.5-48.2,35.6-47.1,37
						c4.9,6.3,57.7-65,67.6-52.2c0.9,1.2-116,94.2-113.2,97.9c10,13.1,159.9-140.6,168.2-130.1c13.5,17.4-187.5,142.4-183.4,147.7
						c6.4,8.2,182.1-163.6,193.1-149.4c3.1,4-162.9,113.9-153.4,126.1c7.7,10,191.6-156.4,195.7-151.3
						c2.3,3-165.6,106.1-153.1,122.2c10,13,135.3-123.1,144.2-111.5c10,13-231.5,178.4-226.3,185.3c7.9,10.2,169.5-137,172.4-133.3
						c5,6.6-129.5,102.3-126.2,106.5c0.7,0.9,124.7-104.5,128.6-99.5c9.9,12.8-137.2,106.4-132.9,111.9
						c1.6,2,124.1-102.3,127.1-98.4c0.4,0.5-16.4,12.4-16.2,12.6c4.2,5.5,24.9-31.6,30.9-23.9c0.4,0.5-34.6,26.3-32.7,28.7
						c3.3,4.3,31.6-28.6,33.6-25.9c4.7,6.1-72.7,59.4-71,61.6c1.1,1.4,2.3-10,6.2-4.8c1.1,1.4-19.5,14.5-18.2,16.1
						c3.1,3.9,54-48.7,57.3-44.3c1.9,2.5-100.7,68-93.1,77.8c3.3,4.3,45.5-44.6,50.1-38.7c0,0,13.4-6,14-5.1c0,0,48-38.6,48.7-37.7
						c0.5,0.7-89.2,62.7-84.8,68.4c1.6,2,96.7-77.2,97.9-75.7c0.6,0.7-77.1,52.8-73.5,57.5c1.6,2.1,71.9-58.4,73.3-56.6
						c4.3,5.5-92.5,73.7-91.9,74.4c0,0.1,88-74.3,91.1-70.4c2.2,2.8-107.7,76.7-103.5,82.1c2.4,3.1,81.4-64.9,82.4-63.7
						c2.8,3.7-49.4,34.9-47,37.9c1.6,2.1,14-14.9,15.9-12.3c0.1,0.2-39.1,36.2-38.1,37.6c0,0,124.7-97,125-96.6
						c1,1.4-59.7,46.1-56.8,50c1,1.3,13-10.7,13.3-10.3c0.8,1-7.1,13.7-6.7,14.2c0,0,24.7-19.1,24.8-19.1"/>
					<path class="st7" d="M968.6,257.1l-0.3-0.2c0.7-1.4,52.9,32.9,55.5,27.8c0,0-59.5-31.6-59.3-31.9c1.2-2.4,65.1,36.7,67.2,32.9
						c0.3-0.5-58.7-30.6-58.3-31.4c0.1-0.1,12.4-1.8,12.4-2c1.1-1.9-27.8-13.4-27.2-14.7c1.5-2.9,41.4,14.8,41.7,13.9
						c1.8-3.4-40.8-22-40.8-22c0.6-1-10.9-10.2-10.1-11.5c1.4-2.6-18.8-7.3-17.6-9.5c4.3-7.9,114.3,66.4,117.6,60.4
						c0.5-0.9-58.4-31.4-58.4-31.4c1.1-2.1-23-15.3-22.7-15.7c1.3-2.4-55.8-25.3-53.9-29c2.7-5.1,104.9,66,109.4,57.8
						c0,0-56.1-30-56.1-30.1c0.1-0.2,77.5,35.5,78.1,34.3c0.5-0.9-105.6-54.2-104.5-56.3c1.6-3,91.4,57,95.5,49.4
						c2.3-4.1-77.3-36-75-40.4c3.3-6.2,81.3,40.6,81.8,39.5c0.2-0.3-86-37.9-82.5-44.4c0.2-0.4,152.9,84.2,155.1,80
						c0.9-1.6-161.4-85.6-160.9-86.6c2.3-4.2,97.1,58.7,101.9,49.8c2.3-4.4-62.6-29.6-60.8-32.7c0.8-1.5,56.2,25.4,57.6,22.9
						c2.3-4.4-56.8-25-54.4-29.4c5.2-9.6,113.7,64,115.3,61.1c0,0-117.4-50.8-112.2-60.4c6.5-12,131.7,77.5,136,69.6
						c1.5-2.8-151.6-74.5-148.6-80c1.8-3.3,36.4,15.9,36.7,15.3c2.4-4.6-143.2-63.6-137.7-74.1c11-20.4,203.6,123.7,212,108.3
						c1.1-2.1-167.2-73.2-160.2-86.2c2.8-5.2,94.4,54,97.7,47.8c7.3-13.6-138.5-65.1-134.5-72.4c5.6-10.3,244.8,149.9,255.6,129.9
						c1.4-2.7-260.3-125.7-254.4-136.9c8.3-15.5,182.7,117.6,192.4,99.7c8.4-15.7-99.2-46.3-96.2-51.8c1.1-2.2,57.3,30.8,58.5,28.4
						c2.5-4.8-69.4-25.4-64.5-34.7c0.4-0.7,90.3,45.2,90.6,44.6c8.7-16.2-98.5-48.6-96.7-52c4.6-8.6,149,84.3,153.7,75.5
						c6-11.1-210.8-103.1-206.5-111.1c9.8-18.3,263.6,158.5,271.9,142.8c0.9-1.7-282.7-135.4-275.7-148.3
						c7.6-14.1,198.9,114.3,203.8,105.3c0.9-1.5-163.5-69.2-155.6-83.8c4.5-8.5,133.5,84.2,140.8,70.6c4.8-8.9-130-67.4-128.9-69.3
						c3.9-7.4,189.3,105.9,192.2,100.5c10.6-19.5-179.9-71-169-91c1.6-2.9,115.5,65.8,117.6,62c10.2-18.9-120.7-59.3-118.3-63.7
						c2.1-3.9,105.5,54.2,105.6,54c10.4-19.3-117.3-43-109-58.6c9.8-18.3,194.7,120.7,202.7,105.5c1.5-2.9-347.4-157-334.9-180.3
						c5.2-9.6,292.1,193.9,307.8,164.7c5.2-9.7-270.6-144-269.9-145.3c13.7-25.6,304.3,168.4,307.1,163.3
						c9.3-17.4-293.5-131.3-282.4-152c2.6-4.8,252.8,133.7,252.8,133.7c11.1-20.4-183.8-86.9-178.7-96.2
						c3.4-6.3,206.1,123.6,213.1,110.5c5.1-9.5-258.3-108.7-245.7-132.2c9.6-17.8,208.3,127.1,214.6,115.3
						c10-18.5-292.2-154.7-291.2-156.6c10.1-18.7,206.1,125.1,212.2,113.6c5.1-9.5-117.6-36.8-106.6-57.4
						c1.9-3.6,156.2,80.3,157.5,77.7c9.2-17-284.4-136.6-277.6-149.2c4.6-8.5,302.8,157.9,302.8,157.9
						c13.1-24.4-257.2-109-244.8-131.8c5.7-10.6,238.2,147.5,248.2,129c9.4-17.6-284.6-153-284.6-153c9.1-17,255,136.7,255,136.7
						c4.4-8.2-257.5-109.6-245.4-132c1.4-2.7,334.8,197,341.9,183.7c4.7-8.7-261.8-140.8-261.8-140.8c8-14.9,172.6,90.5,172.8,90
						c3.4-6.2-178.8-79.9-172-92.6c5.3-9.9,174,103.1,180.2,91.4c0.5-1-278.7-150-278.7-150c16-29.5,357.9,219.5,369.9,197.4
						C1287.2,228.6,907,49.9,907,49.9c12.3-22.9,266.3,145.6,269.5,139.6c4-7.3-290.2-120.5-275.4-148.2
						c5.1-9.7,317.2,191.5,329.4,168.8c9.8-18.2-311.1-127.1-294.2-158.3C947.8,30.6,1279.6,250.6,1289,233
						c0-0.1-396.7-213.5-396.7-213.5c17.7-33,341.2,202.5,350.9,184.6c5.4-10-266-126.9-259.3-139.6
						c10.1-18.7,265.3,144.4,267.7,139.9c0,0-384.9-176.4-372-200.2c16.8-31.3,381.8,239.9,398,209.8c0,0-344.7-184.7-344.4-185.3
						C943.3,9.8,1265,232,1277.9,208.2c10.8-20-321.6-142.8-309-166.2c13.5-24.9,271.2,159.5,277.5,147.8
						c5-9.4-240-125.7-238.6-128.4c9.4-17.5,169.8,99.8,174.2,91.7c13.9-25.9-240.8-97.9-227.6-122.5c7.8-15,320.6,186.9,327,174.8
						c8.2-15.2-358.2-180.6-353.1-190c13-24.2,299.8,171.8,306.9,158.6c4.8-9-278.7-135.8-272.8-146.7
						c9.7-18,298.4,168.3,303.5,158.6c0.6-1.1-296-132-284.5-153.2C988.6,19,1213,167,1219.1,155.8c3.5-6.4-261.6-113.6-250.3-134.7
						c6-11.2,316.8,187.5,324.7,173c3.5-6.6-310.7-129.4-294.9-158.8c5.8-10.7,261.9,174.3,277,146.1
						c13.2-24.1-347.2-160.8-336.4-180.9c1.2-2.3,344.7,193.2,348.1,186.9c14.2-26.3-421.8-208.3-413.9-222.7
						c13.7-25.5,383.4,198.6,383.8,198.1c0,0-346.2-171.3-339.9-182.9c4.2-7.8,329,196.6,338.3,179.1
						C1271.8,128.7,951.4,6.5,956.1-2.2c15.2-28.1,331,206.5,343.8,182.9c3.6-6.7-435.1-215.2-427.2-229.9
						c5-9.3,291,172.3,299.2,157c0,0-306.7-144.9-298.3-160.5c5.1-9.7,397.5,224.1,403,213.8c12.7-23.7-419.5-221.9-417.9-224.8
						c0,0,337.7,193.4,343.4,182.8c8-14.8-292.4-145.9-287.6-154.7c0,0,370.2,204,373.5,198.1C1302.2,135.7,990.6,14.1,995.5,5
						c10.8-20,308.8,168.7,310,166.4C1320.6,143.3,853-48.3,863.1-66.9c18.3-34.1,345.3,185.5,347.9,181
						C1225.4,87.3,922.4-0.4,939.4-32c17.4-32.4,341.2,183.4,343.8,178.6c6.2-11.6-314.9-136.1-301-162
						c11.2-20.8,210.4,118.7,214.5,111.2c7.2-13.3-219.5-77-202.5-108.9c0.1-0.2,294,192.2,309.3,163.8
						c0.7-1.1-399.5-213.1-398.7-214.5c7-13.1,267.1,139.9,267.1,139.9C1172.5,75,916.6-55.6,919.1-60
						c3.1-5.9,290.9,191.7,307.5,161c0.1-0.1-360.6-172.2-351.5-189.1c0,0,396.1,228.3,405.4,211.1c0.4-0.9-409.1-214-406.5-218.7
						c1.1-2.2,322.4,195.4,332.3,177.1c8.4-15.6-257-112-246-132.4c8.4-15.6,200,122.4,209.1,105.5c16.4-30.4-192.5-68.6-178-95.7
						C995.9-49.6,1214,92,1220.4,80c8.9-16.5-351.8-162.7-340.7-183.3c6-11.2,385.2,237.7,400.7,208.9
						c3.9-7.2-374.9-164.3-359.3-193.3c0,0,322.7,214.1,341.5,179c10.6-19.6-352-170.6-344.1-185.2
						c8.3-15.5,319.9,209.2,337.2,176.9c16.8-31.2-403.6-189.5-392.1-211c15.6-29,375.7,252.3,397.8,211
						c6.5-12-323.9-137.6-308.6-166c3.5-6.4,226.7,115.7,227.5,114.2C1194.4,5,864.6-136.7,865.4-138.3
						c9.3-17.3,397.6,244.1,412.7,216.2c2-3.8-419.6-218-416.3-224c9.8-18.3,356,211.5,366.2,192.8c1.7-3.1-347.8-160.4-336.6-181.2
						c16.2-30.1,331.3,203.3,342.9,181.6c0.6-1.1-271.6-131.4-265.4-142.9c1.4-2.6,279.2,170.9,290.5,149.8
						c4.5-8.1-420.3-199.3-409-220.1c4.9-9.1,390.8,219.1,396.3,209.1c8.3-16-314.6-146.4-305-164.2
						c17.3-32.2,309.6,162.7,309.6,162.7c0.7-1.4-312.5-149.1-304.6-163.9c2.8-5.2,256.6,132.9,257.2,131.8
						c6.5-11.9-302-160-301.1-161.9c18.2-33.9,332.9,209.2,346.8,183.3C1267-1.5,840.3-160.9,852.2-183.1
						c17.4-32.4,344.3,196,350.1,185.2c8.9-16.5-290.7-131.7-280.4-150.9c14.9-27.8,312.2,167.4,314.2,164
						C1250.2-11,960.7-118,966.9-129.6c6-11.2,203.2,116,208.9,105.4c8.9-16.5-201.2-92.3-194.5-104.7
						C993.9-152.5,1229.6-3,1229.6-3s-341.7-148.7-327-176c5-9.3,257.5,161.9,268.8,140.8c13.9-26-246.3-112.8-238.1-128.1
						c7.5-13.9,261.3,149.3,267.6,137.5c6.5-12.1-237.1-114.7-231.7-124.7c7.2-13.3,263.5,144.2,266.9,138.1
						c7.7-14.4-214.4-103.5-209.4-112.7c4.4-8.1,154,87.6,158.9,78.5c2-3.7-151.7-54.7-140.5-75.6c3.8-7.1,111.1,57.1,113.2,53.2
						c5.1-9.4-204.1-100.6-200.3-107.7c11.6-21.6,215.6,116.1,217.8,111.9c0,0-129.5-60.5-125.6-67.6
						c7.5-13.9,134.8,84.6,140.9,73.2c11.6-21.6-245.3-111.9-237-127.4c9.1-16.9,327.6,188.3,333.7,177
						c1.1-2.2-212.6-100.1-206.6-111.2c3.8-7.1,97.6,65.3,103.3,54.7c1-2-124.5-46.6-116-62.4c11.8-22,215.1,117.7,217,114.4
						L985.4-178.9c6.7-12.5,196.5,115.1,202.6,103.6c1.5-2.6-177.7-82.8-172.4-92.8c0,0,238.6,127.1,241.7,121.5
						c9-16.8-216.7-98.5-209.1-112.5c3.2-5.8,116.9,60,118.6,57c3-5.6-89.4-46.7-88.8-47.8c9.9-18.4,201.6,115,205.5,107.6
						c3.1-5.7-229.1-106.1-221.9-119.4c4.5-8.4,209.9,118.6,214.8,109.6c1.5-2.8-220.1-108.7-216.1-116.2
						c5.2-9.6,99.2,47.8,100.1,46.2c6.7-12.4-38.7-6.4-32.8-17.6c5.6-10.3,122.3,68.2,124.3,64.2c7.5-14-185.8-90.3-181.8-97.8
						s146.4,74.2,146.4,74.2c2.9-5.3-99.2-45.1-95.7-51.5c7.1-13.2,157.4,87.1,159,84.1c0.1-0.2-192.7-95.5-189.2-101.8
						c2.3-4.1,55.8,28.9,55.9,28.9c1.8-3.4-106.7-57.2-106.7-57.4c2.9-5.4,175.4,96.8,178.2,91.6c0.2-0.5-107.7-56-106.8-57.5
						c1.8-3.3,44.9,22.9,46.3,20.2c1-1.8-84.6-34.7-80.1-43c0,0,123.6,64,124.4,62.5c2.8-5.2-128.2-59.6-124.3-66.9
						c1-2,68.5,45.5,72.4,38.2c5.2-9.9-18.9-7.7-17.8-9.6c0.2-0.3,4.6,1,4.7,0.6c2.5-4.7-29.8-14.6-29.2-15.7
						c1.4-2.5,144.8,77.8,145.2,77c3.9-7.3-131.7-70.9-131.7-70.9c4-7.5,117.8,79.1,124.7,66.2c3.1-5.7-97.5-45.3-94.5-50.9
						c5.4-10,114,58.4,115.4,55.7c1-1.7-80.4-35-77-41.4c0.9-1.7,32.9,19.8,34.4,17c0.3-0.6-36.2-19.5-36.2-19.5
						c1.1-2.2,26.2,12.3,26.6,11.4c1.4-2.6-51.8-23.6-50-26.9c0.1-0.1,93.5,49.4,93.5,49.4c2.9-5.3-91.5-43.1-88.9-47.9
						c0.8-1.4,52,24,52.6,22.7c3.6-6.5-155.3-74.9-151.7-81.7c2.6-4.8,95.1,49.3,97.5,44.7c0.1-0.2-75-38.3-74.1-39.9
						c2.4-4.3,91,50.2,94.2,44.2c2.2-4-55-27.8-54.2-29.2c1.9-3.6,110.9,57.1,111.4,56.1c0.6-1-19.3-7.8-18.2-9.8
						c0.2-0.3-16.7-13.7-16.4-14.3c1.3-2.4-42-18.9-40.5-21.8s30.4,12.5,30.3,12.4c1-2-22-10.4-21.4-11.5
						c2.1-3.9,79.2,42.8,81.9,37.6c0.4-0.8-140.1-74.3-139.6-75.1c2.5-4.6,76.1,38.8,77.5,36.2c0,0-2.2-0.9-2.1-1.1
						c3.6-6.5,68.4,36.8,68.7,36.2c0-0.1-85-45.7-85-45.7s65.9,35.8,66.1,35.2l-44.5-23.9"/>
				</g>
			</g>
		</g>
	</g>
</g>
<g class="st4">
	<g>
		<g>
			<g>
				<defs>
					<path id="SVGID_3_" d="M742.2,54.9c49.8,0,91.1,6.8,130.7,43.3c37.7,34.8,33.4,112.5,33.4,112.5 M742.2,54.9
						c0,0-4.7,52.3,38.3,108.3s125.8,47.5,125.8,47.5"/>
				</defs>
				<clipPath id="SVGID_4_">
					<use xlink:href="#SVGID_3_"  style="overflow:visible;"/>
				</clipPath>
				<g class="st8">
					<path class="st9" d="M640.5-116.7c0.1-0.1,0.2-0.1,0.3-0.1c0.6,1-5,10.6-4.8,11.1c0.2,0.3,79.3-46.9,79.8-46.1
						c1.1,1.9-78.2,45.4-75.3,50.5c1.1,2,26.3-16.4,26.9-15.5c3.5,6.1-57.4,38.3-56.1,40.6c1.6,2.7,56.7-36.2,58.2-33.6
						c2.4,4.2-47.4,31-45.6,34c1,1.8,78.1-52.2,81.2-46.9c4.5,7.7-115.8,67-112.2,73.3c3.3,5.7,93.3-56.7,94.5-54.6
						c3.8,6.6-113.2,51.4-106.9,62.4c1.7,2.9,166.5-103.4,169.6-97.9C756.3-128.9,573.7-38.4,576.2-34
						c4.8,8.3,184.9-109.7,186.2-107.5c3.1,5.3-121.4,62.8-114.9,74.1c0,0,109.9-71.5,113.4-65.5C767.2-122,583-29.5,584.6-26.7
						c4.5,7.7,155.8-101.5,160.8-92.9c0,0-109,68.2-108.7,68.8c0,0,119.2-80.8,124.4-71.8c0,0-161.3,84.7-153.6,97.9
						C609.1-21.9,817-159,822.7-149c7.3,12.7-153.4,87.2-152.5,88.8c2.9,5,154.1-91.6,155.3-89.6c2,3.4-222.1,105.9-209.6,127.6
						c3.1,5.4,214.8-125.1,215.3-124.3c6.6,11.4-205.8,119.7-204.7,121.4c1.9,3.3,218.8-135.5,222.8-128.6
						c9.2,15.9-210.4,98.5-198.4,119.3c8,13.9,91.9-65.7,97.4-56.2c1.5,2.6-120.5,59.5-114.6,69.7c1.7,3,159.3-109.3,166.8-96.3
						c0.8,1.5-226.2,109.1-214.4,129.5c8,13.9,174.5-106.9,177.2-102.3c2,3.4-100.6,48-96.1,55.8c5.1,8.8,199.6-117.2,200.5-115.7
						c10.2,17.7-229.8,124.5-225.6,131.8c4.7,8.2,200.2-129.3,206.2-119C862.4-112.5,601.6-8.7,609,4.2
						c4.4,7.6,255.2-160.8,261-150.7c6.9,12-294.8,164.4-291.3,170.4C587,38.3,751.6-97.4,760.9-81.3c5,8.6-181,108.6-180,110.3
						c5.4,9.4,308-192.1,314.2-181.4c6.9,12-230.8,117.2-222.5,131.6c6.1,10.6,148.7-108,158.3-91.4
						c13.8,23.8-234.7,130.4-232,134.9C609.7,41.5,802.3-119.9,813.2-101c7.5,13-240,124.1-233.7,134.9
						c2.8,4.9,250.7-151.5,253.6-146.4c2,3.5-236.8,124.4-229.8,136.6c6.5,11.3,215.9-144.8,224.6-129.7
						c0,0-219.5,127.4-219.1,128.2C621.2,44.1,782-102,792.7-83.6c5.3,9.2-139.9,71.4-133.2,82.8C672.4,21.8,822.8-107.1,828-98.1
						c2,3.6-139.5,62.5-131.6,76.2c7.7,13.3,143.2-88.1,145.5-84c0,0-196.9,106.5-192.6,114c12,20.8,244.5-155.8,250.8-144.8
						C906.7-125.4,593,28.9,598.5,38.4c5.3,9.1,277.1-174.6,283.4-163.6c13,22.6-307.2,150.3-294.6,172.1
						c3.5,6.1,306.8-177.1,306.8-177.1c1.6,2.7-211.9,117.8-207.2,125.9c1.2,2.2,182.6-109.6,184.4-106.5
						c6.8,11.8-285.6,169.7-285,170.7c4,7,240.6-141.3,241.6-139.5c9,15.6-257.8,123.1-243.8,147.3c14.5,25.1,261.5-151,261.5-151
						s-173,88.8-166.7,99.7c6.8,11.8,210.6-143.7,220.2-127.1c6,10.5-256,149.8-255.3,151c5.1,8.9,269.4-177,278.7-160.9
						c10.2,17.8-265.5,153.1-262.2,159c0.2,0.4,204.2-119.2,204.8-118.2c4.4,7.6-227.1,117-218.9,131.2
						c3.8,6.5,286.4-187.2,295.9-170.8C958.3-91.2,586,46.8,603.6,77.2c0.7,1.3,331.4-205.3,337.5-194.8
						c0,0-335.3,193.4-334.6,194.7c10.1,17.4,334.6-221.6,346.9-200.3c5.4,9.4-321.4,184.7-317.9,190.7
						c0.5,0.9,328.4-189.6,328.4-189.6c8.3,14.4-281,156.6-277.6,162.5C697,58.9,948.9-142.5,962.5-119
						c10.5,18.2-340.1,202.1-339,204.1c13.1,22.7,280.7-194.6,294.8-170.2c8.6,15-236,120.4-226.9,136.1
						C702.7,70.4,915.6-78.4,915.6-78.4C926.1-60.3,674.4,47,684.4,64.2c11.5,20,154.1-105.6,161.4-93.1
						C858.9-6.2,619.3,93,624.8,102.7c9.8,17,317.2-218.6,332.5-192c5.2,8.9-315.4,185.9-314.8,186.9
						c9.7,16.7,222.8-140.9,228.1-131.7c5.7,9.9-206.3,101.7-195.8,119.7C675,85.9,906.5-71.7,916.7-54
						c0.5,0.9-277.6,157.9-274.3,163.6c7.9,13.6,296-193.8,305.9-176.7c6.6,11.4-292.2,167.9-289.9,171.8
						c0.5,0.8,208.4-144.8,219-126.4C889.2-1.2,656.3,78.9,668.8,100.4c2.6,4.5,225.2-149.6,233.7-134.9
						c8.4,14.5-286,158.8-282.5,164.9c6.2,10.7,246.5-168,257.7-148.8c10.6,18.3-223.5,109-214,125.5c14.7,25.4,203.1-140,212.9-123
						c0.3,0.5-210.2,102.5-198.4,123c9.2,16,277.1-174.1,283.3-163.5c5.5,9.6-322.2,188.6-321.9,189.1
						c13,22.6,232.2-167.1,246.5-142.3c16,27.5-308.4,177.5-307.8,178.5c8.8,15.3,268.9-159,270.5-156.2
						C858.9,30.2,664.6,101,673,115.5c11,19,245.8-143,246.2-142.2c17.1,29.6-317.7,190.6-317.3,191.4
						C613.3,184.4,831.4,9.5,841.2,26.5C847.8,38,595,168.2,599,175.1c3.4,5.9,335.2-216.7,345.2-199.3
						c9.6,16.6-259.5,133.7-251.4,147.8C699.4,135,868.8-8.6,882,14.4c5.5,9.6-285.1,138.4-273.2,159.1
						C624,199.8,894.7,4.2,896.5,7.4c8.6,14.9-320.6,172.2-312.7,185.8c16,27.6,353.6-205.4,354.2-204.5
						c6.2,10.7-350.3,179.8-338.7,199.9c1.2,2,287.3-180,293.4-169.4c4.6,8-261.7,128.2-249.8,148.9
						c12.5,21.5,310.3-194.3,316.8-183c10.7,18.5-291.2,166-288.7,170.3c1.2,2.1,230.9-155.5,240.5-138.8
						c9.1,15.7-263.4,136.9-253.6,153.8c16,27.5,183.3-133.7,195.4-112.9c5.4,9.3-181.6,100.1-179,104.6
						c8.1,14.1,231-147.2,237-136.8C925,49,662.3,159.9,668,169.8c9.6,16.5,213.5-152.6,226.3-130.6c17.3,30-316.8,173.2-309,186.7
						c5.6,9.7,258.8-166.8,266.4-153.8c9.1,15.9-271.5,132.8-260,152.8c15.5,26.8,321.9-198.4,327.3-189
						c0.5,0.9-287.3,148.5-277.7,165.1c2.2,3.8,185.8-139.7,199.8-115.4c4.7,8.1-205.9,104.3-198.5,117
						c6.7,11.5,307.3-192.8,314-181.3c0.2,0.3-378.9,175.1-359.1,209.4c8,13.8,262.4-188.4,278.4-160.7
						c2.9,5-205.3,126.8-205.3,126.8c2.7,4.8,287.7-166.1,287.7-166.1c13.4,23.1-373.8,191.8-359.7,216.2
						c10.6,18.4,295.8-174,297.2-171.6c10.6,18.4-291.5,161-286.4,169.8c8.7,15.1,324.3-209.9,334.1-192.9
						c10.8,18.6-330.4,181.6-324.9,191.1c12.1,21,278.7-180,287-165.7c10.9,18.8-225.4,106-213.4,126.7
						C705.8,227.9,855.8,77.2,870,101.7c12.5,21.6-304.4,149.8-291.4,172.3c8.6,14.8,341.9-212.6,348.5-201.2
						c13.1,22.7-263.5,146.5-259.3,153.7c8.7,15,229.4-151.4,237.6-137.2c10.4,18-297.4,150.2-285.2,171.3
						c10,17.4,339.4-201.3,341.7-197.3C972,80.7,597.8,246.9,613,273.2c3.5,6,233.9-135,233.9-135c12.5,21.7-229.8,126.6-224,136.6
						c7,12.1,272.4-171.7,278.6-160.9c4.9,8.4-240.1,143.3-240.1,143.3s194.2-115.3,195.5-112.9c9,15.7-186.6,108.2-185.4,110.2
						c4.9,8.4,208.6-138.7,216.5-125c12.5,21.7-227.9,114.6-220.4,127.4s243-146.7,245.8-141.9c7.6,13.2-301.8,169.6-296.2,179.2
						c2.1,3.6,276.3-166.4,279.3-161.2c5.1,8.9-177.9,102.4-177.1,103.8c13.4,23.2,153.8-93.1,155.6-89.9
						c5.1,8.8-136.2,64.3-129.2,76.4c10.7,18.5,157.5-106.5,164.3-94.8c9,15.7-249.5,139.1-243.8,149c7,12.1,286.1-191,297.3-171.6
						c10.6,18.3-220.7,102.3-208.5,123.3c9.6,16.6,171.5-122.2,181.5-104.8c9.7,16.8-176.9,83-167.6,99.1
						c7.4,12.7,71.7-68.9,83.6-48.3c5.7,9.8-120.6,71-120,72.1c6.9,11.9,187.4-122.8,193.7-111.8c1.3,2.3-215.7,124.7-215.2,125.6
						c0.1,0.2,139-95.6,145.6-84.1c4.9,8.5-195.4,104.4-189.6,114.4c8.3,14.4,248.7-165.6,258.2-149.1
						c1.9,3.2-145.8,80.3-143.2,84.8c2.4,4.2,136.6-89,141-81.4c5.5,9.5-204.8,118.1-204.4,118.9c3.7,6.4,164.5-101.2,167.2-96.5
						c1.6,2.8-115,62.7-110.7,70.1c5.5,9.5,59.3-53.2,67.5-39c0.8,1.5-48.1,26.4-47.4,27.8c3.6,6.3,60.4-52,67.9-39.2
						c0.7,1.2-117,71.4-114.9,75c7.5,13.1,162.6-108.1,168.8-97.4c10.1,17.4-187.9,106.3-184.8,111.6
						c4.8,8.3,185.6-126.3,193.9-111.9c2.3,4-162,83.5-154.9,95.8c5.8,10,193.4-118.6,196.4-113.4c1.8,3-163.5,76-154.1,92.2
						c7.5,13,138.1-95.2,144.8-83.6c7.5,13-232.4,133.6-228.5,140.5c5.9,10.3,170.9-103.6,173-99.9c3.8,6.6-130.3,77-127.9,81.3
						c0.5,0.9,126.2-79.6,129.1-74.5c7.4,12.9-137.7,79.8-134.5,85.4c1.2,2,125.4-77.7,127.7-73.7c0.3,0.5-16.4,9.3-16.3,9.5
						c3.1,5.5,26.5-25.7,31-17.9c0.3,0.5-34.7,19.6-33.3,22c2.5,4.3,32.2-22.1,33.8-19.5c3.5,6.1-73.4,45-72.1,47.2
						c0.8,1.4,3.3-8.8,6.3-3.6c0.8,1.4-19.5,10.7-18.5,12.3c2.3,3.9,55-37.6,57.5-33.2c1.4,2.5-99.9,49.4-94.2,59.2
						c2.5,4.3,46.9-35,50.3-29c0,0,12.9-3.8,13.4-2.9c0,0,48.3-29.1,48.9-28.2c0.4,0.7-88.8,46-85.5,51.7c1.2,2,97.4-58.2,98.3-56.7
						c0.4,0.8-76.6,38.5-74,43.2c1.2,2.1,72.5-44.2,73.6-42.5c3.2,5.5-93.2,55.5-92.7,56.3c0,0.1,89.1-56.7,91.4-52.8
						c1.6,2.9-107.3,56.5-104.2,61.9c1.8,3.1,82-49,82.7-47.8c2.1,3.6-49.2,25.6-47.4,28.6c1.2,2.1,14.5-11.8,16-9.3
						c0.1,0.2-40,28.1-39.3,29.5c0,0,125.3-72.8,125.5-72.4c0.8,1.3-60,34.6-57.8,38.5c0.8,1.3,13.1-8.1,13.4-7.7
						c0.6,1-8.1,11.5-7.8,12.1l24.8-14.3"/>
					<path class="st7" d="M642.6,253.2l-0.3-0.2c0.8-1.2,44,36.4,47,32.1c0,0-50.2-36-50-36.3c1.4-2,54.6,41.4,57,38.1
						c0.3-0.5-49.6-35-49.1-35.7c0.1-0.1,11.5-0.1,11.6-0.2c1.1-1.6-23.7-15.6-22.9-16.7c1.8-2.5,35.7,18.5,36.2,17.8
						c2.1-2.8-34.4-25-34.4-25c0.6-0.8-8.7-10.6-7.8-11.8c1.6-2.2-16.1-9-14.8-10.8c4.9-6.7,95.7,74.4,99.4,69.3
						c0.5-0.7-49.3-35.8-49.3-35.8c1.3-1.7-19-16.7-18.7-17c1.4-2-47.6-29.9-45.4-33c3.1-4.3,87.2,72.9,92.2,66
						c0,0-47.3-34.2-47.2-34.3s66,41.8,66.8,40.8c0.5-0.7-89.3-62.3-88-64c1.9-2.5,76,63.1,80.7,56.6c2.5-3.5-65.9-42.3-63.2-45.9
						c3.8-5.2,68.8,46.8,69.5,45.9c0.2-0.3-73.5-45-69.5-50.5c0.3-0.4,128.5,95.4,131.1,91.8c1-1.4-136.1-97.6-135.5-98.4
						c2.6-3.5,81,65.3,86.5,57.8c2.6-3.6-53.2-34.6-51.3-37.3c0.9-1.3,47.9,30,49.5,27.9c2.7-3.7-48.5-29.7-45.9-33.3
						c5.9-8.1,95.5,72.1,97.3,69.7c0,0-100.4-60.6-94.5-68.7c7.3-10.1,110.1,86.6,115,79.9c1.7-2.3-128.5-86.4-125.2-91
						c2-2.8,31.1,18.9,31.4,18.4c2.8-3.8-122.3-75.5-116-84.3C597.3,118,754.6,272.5,764,259.6c1.2-1.7-143-87.1-135-98.1
						c3.2-4.4,79.1,60.7,82.9,55.5c8.3-11.5-117.8-76.2-113.4-82.4c6.4-8.7,204,166.4,216.3,149.4c1.7-2.3-221.1-146.3-214.3-155.7
						c9.5-13,151.6,129.4,162.6,114.3c9.6-13.2-84.4-54.3-81.1-58.9c1.3-1.8,48.2,35,49.7,33c2.9-4-60-31.6-54.3-39.5
						c0.4-0.6,76.5,52.2,76.9,51.7c9.9-13.6-83.6-56.3-81.5-59.2c5.2-7.2,125,94.9,130.4,87.5c6.8-9.3-178.8-119.6-173.9-126.4
						c11.2-15.4,219.9,176.4,229.6,163.2c1-1.4-240.2-157.8-232.3-168.8c8.7-11.6,166.8,128.7,172.3,121.1c1-1.3-140-83-131.1-95.2
						c5.2-7.1,110.9,93,119.3,81.5c5.5-7.5-109.8-77.2-108.6-78.9c4.5-6.2,159,119.6,162.3,115c12-16.5-154.6-86.7-142.5-103.5
						c1.8-2.5,96.9,74,99.2,70.8c11.6-16-102.3-68.8-99.7-72.4c2.4-3.3,89.2,62.3,89.3,62.1c11.8-16.3-101.3-53.5-91.8-66.7
						c11.2-15.4,162,133.6,171.2,120.9c1.8-2.4-296.4-185.4-282.2-205c5.9-8.1,241.5,212.1,259.4,187.5
						c5.9-8.1-228.2-164.1-227.4-165.2c15.9-21.5,256,190.5,259.2,186.1c10.7-14.7-250.5-155.4-237.9-172.9
						c2.9-4,213.3,152.5,213.3,152.5c12.5-17.2-156.3-101.7-150.7-109.5c3.9-5.4,172,137.7,180,126.7c5.8-8-221.3-130.6-207-150.4
						c10.9-15,173.7,141.1,180.9,131.3c11.3-15.5-246.5-176.4-245.3-178.1c11.5-15.8,171.8,139,178.8,129.4
						c5.8-8-102.3-48-89.8-65.3c2.2-3,132,92.1,133.5,90c10.5-14.5-241.5-159.2-233.8-169.8C602.8,60.1,853.3,248,853.3,248
						C868.2,227.5,633,117.4,647,98.1c6.5-8.9,198.3,163.3,209.6,147.8c10.8-15-239.7-174.2-239.7-174.2
						c10.4-14.3,214.9,155.7,214.9,155.7c5-6.9-220.5-131.3-206.8-150.2c1.6-2.3,279.9,220.3,288.1,209
						c5.4-7.4-220.5-160.2-220.5-160.2c9.1-12.5,145.7,103.5,146,103.1c3.8-5.3-152.7-94.6-144.9-105.3
						c6.1-8.3,145.4,115.1,152.5,105.3c0.6-0.8-234.8-170.6-234.8-170.6C629.5,33.6,909.6,302,923.2,283.3
						c12.3-16.9-311.1-226-311.1-226c14-19.3,224,165,227.6,160c4.5-6.1-248.9-145.2-232-168.5c5.9-8.1,264.7,213,278.6,193.9
						c11.1-15.4-267-153.8-247.9-180.1c13-17.9,287.4,222.9,298.2,208.1L602.3,27.8c20.2-27.8,285,226.1,296.1,210.9
						C904.5,230.3,672.3,90.6,680,80c11.5-15.8,223.3,163.9,226,160.1c0,0-328-207.7-313.4-227.7C611.8-14,910,277.4,928.4,252
						c0,0-290.5-210.2-290.1-210.8c11.6-16,276.6,225.6,291.2,205.4c12.3-16.9-274.6-169.4-260.3-189.1
						c15.3-21,226.7,178.4,234,168.4c5.7-7.9-202.7-143.8-201-146.1c10.7-14.7,142,111.6,147,104.8C864.9,162.8,642.3,66,657.4,45.4
						c9.1-12.5,268.5,209.4,275.8,199.3C942.5,231.9,630,36.6,635.8,28.6c14.8-20.4,251.2,193,259.3,181.9
						c5.5-7.6-236.5-157.7-229.8-166.9c11-15.1,250.4,189.6,256.3,181.5c0.6-0.9-252.7-156.4-239.7-174.2
						c8.3-11.5,193.9,150.7,200.8,141.2c3.9-5.4-223.8-135.4-210.9-153.2c6.8-9.4,264.9,209.3,273.7,197.2
						c4.1-5.6-266.4-155.8-248.5-180.5c6.6-9,216.5,190.6,233.8,166.9c14.9-20.4-295.8-189.1-283.5-206
						c1.4-1.9,289.4,218,293.3,212.6C956.8,206.9,583.1-12.1,592-24.3c15.5-21.5,324,227.6,324.3,227.2c0,0-293.6-198.2-286.4-208
						c4.8-6.6,274.7,219.1,285.4,204.4C933.8,173.8,657.7,23.3,663,16c17.2-23.6,275.4,228.4,289.8,208.5
						c4.1-5.7-368.9-249.1-359.9-261.5c5.6-7.8,243.2,192.3,252.6,179.5c0,0-260.8-169.5-251.3-182.6
						c5.9-8.1,333.5,252.6,339.8,243.9c14.5-20-353.8-253.3-352-255.8c0,0,283.1,217.3,289.6,208.3
						c9.1-12.4-247.8-168.4-242.3-175.9c0,0,311.3,231,315,225.9C960.6,183.9,692.4,35,698,27.3c12.3-16.9,259.8,191.3,261.3,189.3
						c17.2-23.4-384-255-372.6-270.8c20.8-28.7,291,211.1,293.8,207.3c16.4-22.5-248.2-139.5-228.8-166.2
						c19.8-27.3,287.5,208.6,290.4,204.6c7.1-9.8-269.4-162.4-253.5-184.2c12.7-17.5,176.6,133.8,181.2,127.5
						c8.1-11.2-190-97.1-170.5-123.9c0.1-0.1,243.5,210.8,260.9,186.8c0.7-1-336.8-242.8-335.9-244c8-11,225.5,160,225.5,160
						c0.6-0.9-215.7-151.1-213-154.8c3.6-4.9,240.7,210,259.5,184.1c0-0.1-306.5-200.8-296.1-215.1c0,0,331.8,256.2,342.4,241.7
						c0.5-0.7-345.5-244.7-342.5-248.8C601.4-81,869,138,880.2,122.7C889.7,109.6,660.5-10.7,673-27.9
						C682.5-41,839.7,107.9,850,93.7C868.5,68.2,683.3,7.8,700-15.1c5.1-7.1,185.9,148.5,193.2,138.3
						c10.1-13.9-299.6-191.2-287-208.6c6.9-9.5,320.7,263.4,338.4,239.2c4.4-6.1-320.4-195.4-302.7-219.9
						c0,0,266.8,234.3,288.3,204.7c12-16.5-298.8-198.3-289.9-210.7c9.5-13,264.9,229.4,284.6,202.3
						c19.1-26.3-343.4-221.9-330.3-240c17.7-24.4,310.3,275.5,335.5,240.7c7.2-10-277.5-164.8-260-188.8
						c4-5.4,191.8,133.1,192.7,131.8c16.1-22.1-266.2-191.5-265.3-192.8c10.6-14.6,331.2,270.8,348.4,247.2
						c2.3-3.2-354.5-249.7-350.7-254.8c11.2-15.4,297.5,236,309,220.2c1.9-2.6-296.2-188.5-283.5-206
						c18.4-25.4,276,225.4,289.2,207.2C910.6,94,679.3-57.9,686.3-67.6c1.6-2.2,232.6,189.7,245.5,171.8
						c5-6.8-357.3-232.8-344.6-250.3c5.6-7.7,328.1,247.3,334.3,238.8c9.6-13.3-267.7-171.6-256.8-186.6
						c19.7-27.1,261.4,186,261.4,186C926.8,91,660.3-81.8,669.4-94.3C672.6-98.7,886.2,58,886.9,57.1
						c7.3-10.1-254.6-182.7-253.5-184.2C654.2-155.7,910.2,104,926,82.1c19.8-27.2-348.3-224.6-334.8-243.2
						C611-188.4,880,59.4,886.6,50.3c10.1-13.9-247.9-155.5-236.2-171.6c17-23.3,263.1,190.6,265.2,187.7
						c16.1-22.1-233.8-155-226.7-164.7c6.9-9.5,170.4,130.4,176.9,121.5c10-14.1-171.5-108.8-164-119.2
						C716.3-115.9,912,48.9,912,48.9S619.8-128.2,636.6-151.2c5.6-7.8,214,178.8,226.9,161C879.4-12.1,653.6-123,663-135.9
						C671.5-147.6,882,31.9,889.2,22c7.4-10.2-201.4-133.4-195.2-141.9c8.1-11.2,221.7,163.5,225.5,158.4
						C928.2,26.4,737.3-81.9,743-89.7c4.9-6.8,129.1,98.6,134.7,90.8c2.3-3.1-131.2-68.4-118.4-86c4.3-5.9,93.9,65.6,96.3,62.3
						c5.7-7.9-173-116.5-168.7-122.5c13.2-18.2,181.6,132,184.2,128.4c0,0-110.2-70.9-105.8-76.9c8.5-11.7,112,93.5,118.9,84
						c13.2-18.2-209.2-131.8-199.6-145C694.9-168.8,959.1,56.9,966,47.3c1.3-1.8-180.8-117.1-174-126.4c4.3-6,80.7,71.3,87.1,62.4
						c1.2-1.6-107.4-57.7-97.7-71C794.8-106.1,962.5,45.8,964.5,43l-253-183.9c7.6-10.5,164.3,128.8,171.3,119.1
						c1.6-2.2-151.3-97.1-145.2-105.5c0,0,201.2,144.9,204.6,140.1c10.4-14.1-184.7-116.1-176.1-127.9c3.5-4.9,98.8,69,100.8,66.4
						c3.4-4.7-75.5-53.5-74.8-54.4c11.3-15.5,169,129.3,173.5,123.1c3.5-4.8-195.1-124.6-187-135.8c5.2-7,176.2,133.6,181.7,126.1
						c1.7-2.4-186.6-125.9-182-132.2c5.9-8.1,84.3,55.6,85.3,54.3c7.6-10.5-34.4-10.6-27.6-20c6.3-8.7,102.7,77,105.1,73.6
						c8.6-11.8-157.8-104.9-153.1-111.3s123.9,85.5,123.9,85.5c3.3-4.5-84.5-53.2-80.6-58.6c8.1-11.1,132.3,98.5,134.1,96
						c0.1-0.2-163.3-110.5-159.4-115.8c2.5-3.5,47.1,33.1,47.2,33.1c2-2.8-90-65.1-89.9-65.3C766.6-155,910.8-40.8,914-45.2
						c0.3-0.4-91-64.1-90-65.4c2-2.8,38,26.3,39.6,24.1c1.1-1.6-72.6-41.9-67.5-49c0,0,104.5,73.4,105.4,72.1
						c3.2-4.4-109.1-70-104.7-76.1c1.2-1.7,56.7,49.8,61.1,43.7c6-8.3-16.2-9.3-15-10.9c0.2-0.2,4,1.5,4.2,1.1
						c2.9-3.9-25.3-16.9-24.6-17.9c1.5-2.1,122,88.5,122.4,87.9c4.4-6.1-110.9-80.6-110.9-80.6c4.6-6.3,97.3,86.4,105.2,75.5
						c3.5-4.8-83-53.2-79.6-57.9c6.1-8.4,96.4,67.1,98,64.9c1.1-1.5-68.8-41.7-64.9-47.1c1-1.4,27.5,22,29.2,19.7
						c0.4-0.5-30.5-22.2-30.5-22.2c1.3-1.8,22.3,14.4,22.8,13.6c1.6-2.2-44.2-27.8-42.1-30.6c0.1-0.1,78.9,56.4,78.9,56.4
						c3.3-4.5-77.8-50.5-74.9-54.5c0.9-1.2,44.3,28.2,45.1,27.1c4-5.5-131.9-87.2-127.8-92.8c3-4.1,80.3,56.5,83.1,52.6
						c0.1-0.2-63.4-44-62.4-45.4c2.6-3.6,76.4,56.9,80.2,51.7c2.5-3.4-46.6-32-45.7-33.2c2.2-3,93.8,65.6,94.3,64.8
						s-16.6-9.5-15.4-11.2c0.2-0.3-13.5-14.4-13.1-15c1.4-2-35.9-22.4-34.1-24.8s26,15.1,26,15.1c1.2-1.6-18.7-12.2-18.1-13.1
						c2.4-3.3,66.7,48.6,69.8,44.3c0.4-0.6-118.2-84.7-117.7-85.5c2.8-3.9,64.4,44.6,65.9,42.5c0,0-1.9-1.1-1.8-1.3
						c4-5.5,57.6,41.8,57.9,41.3c0-0.1-71.6-52-71.6-52s55.3,40.6,55.6,40.2c0,0-37.5-27.2-37.5-27.3"/>
				</g>
			</g>
		</g>
	</g>
</g>
<g>
	
		<linearGradient id="SVGID_5_" gradientUnits="userSpaceOnUse" x1="6437.1196" y1="276.4457" x2="6267.1997" y2="434.8958" gradientTransform="matrix(1 0 0 -1 -5511.0698 464.8844)">
		<stop  offset="0" style="stop-color:#55BB72;stop-opacity:0.5"/>
		<stop  offset="1" style="stop-color:#FFFFFF;stop-opacity:0"/>
	</linearGradient>
	<path class="st10" d="M742.2,54.9c49.8,0,91.1,6.8,130.7,43.3c37.7,34.8,33.4,112.5,33.4,112.5"/>
	
		<linearGradient id="SVGID_6_" gradientUnits="userSpaceOnUse" x1="6399.6172" y1="236.2314" x2="6229.7075" y2="394.6814" gradientTransform="matrix(1 0 0 -1 -5511.0698 464.8844)">
		<stop  offset="0" style="stop-color:#55BB72;stop-opacity:0.5"/>
		<stop  offset="1" style="stop-color:#FFFFFF;stop-opacity:0"/>
	</linearGradient>
	<path class="st11" d="M742.2,54.9c0,0-4.7,52.3,38.3,108.3s125.7,47.5,125.7,47.5"/>
</g>
<path class="st12" d="M934.3,286.9c0,0-33-140.7-132.3-187"/>
<linearGradient id="SVGID_7_" gradientUnits="userSpaceOnUse" x1="974.9878" y1="280.4648" x2="1202.1947" y2="411.6448" gradientTransform="matrix(0.9909 -0.1342 -0.1342 -0.9909 54.8092 578.6968)">
	<stop  offset="0" style="stop-color:#55BB72;stop-opacity:0.5"/>
	<stop  offset="1" style="stop-color:#FFFFFF;stop-opacity:0"/>
</linearGradient>
<path class="st13" d="M1205,27.8c-5.9,53-24.2,87-76.3,120.1s-145.6,21.8-145.6,21.8 M1205,27.8c-86-44.2-141.9-7-141.9-7
	c-94.1,44.7-79.9,148.9-79.9,148.9"/>
<path class="st12" d="M944.6,288.1c0,0-2.4-179.3,211.6-242.9"/>
<g class="st4">
	<g>
		<g>
			<g>
				<defs>
					<path id="SVGID_8_" d="M96,419.2h180v61H7v-62.5c0,0,76-92,143-176.7s61-79.8,61-102.3s-17.3-64.8-69.8-64.8
						c0,0-63.5,1.4-63.5,67.4H9C9,141.2,17.5,3,146.4,3s133,132.6,133,132.6s-1.1,48.7-32.8,89S96,419.2,96,419.2z"/>
				</defs>
				<clipPath id="SVGID_9_">
					<use xlink:href="#SVGID_8_"  style="overflow:visible;"/>
				</clipPath>
				<g class="st14">
					<path class="st9" d="M-150.1-160.6c0.1-0.1,0.2-0.1,0.2-0.2c0,0.1-0.3,1-0.3,1.1s1.7-1.2,1.9-1.1s-1.9,4.5-1.9,4.6
						c0.4,0.8,7.6-5.3,8-4.6c1.1,1.9-61.5,35.9-59,40.2c0.8,1.3,113.9-68.3,115-66.4c2,3.5-118.7,65.3-114,73.3
						c1.9,3.3,97.9-57.4,98.3-56.8c1.4,2.4-82.4,45.5-78.2,52.7c0.7,1.2,44-29.1,45.6-26.3c0.2,0.3,5.1-3.3,5.4-2.8
						c1.4,2.4,10.4-7.9,11.2-6.5c1.3,2.2-39.1,24.7-37,28.3s120-71.3,121-69.8c5.7,9.8-160,80.4-152.3,93.7c3.5,6.1,48-32.3,50-28.9
						c0,0,33.7-16.3,35.5-13.1c1,1.7,84.2-48.6,84.2-48.6c8.2,14.2-145,91-144.8,91.5c4.6,8,161.8-99.4,164.4-94.9
						c8.7,15-211.4,114.9-204.5,126.8c2.3,4,92.9-63.6,97.2-56.1c0.8,1.3-94.1,50.4-89,59.2C-185.9-52.6,0-183.7,3.1-178.4
						C10.8-165-215.5-62.2-208.2-49.5c1.4,2.4,209.4-132,214.3-123.7c4.6,7.9-156,75.5-147.5,90.2c8,13.9,70.5-44.4,72.1-41.6
						c5.1,8.8-121.9,71.2-121.1,72.4c5.6,9.7,238.7-138.4,239-138c0.9,1.5-275.9,135.3-262,159.4c0.1,0.2,210.4-134.5,216-124.7
						c3.6,6.2-223.3,106.8-212.9,125c2.1,3.7,274.3-177.1,282.4-163C80.3-179.3-164.5-78.2-153.4-59
						c3.6,6.2,174.6-105.3,176.6-101.9C35.3-140-186.1-57.5-177.7-43.1c7.7,13.4,211.3-135.2,217-125.3
						C49.6-150.6-135.5-63.3-133.6-59.9c1,1.7,207-125.5,209.6-121c7.3,12.6-243.1,125.2-235.4,138.5
						c8.7,15,200.2-134.3,208.3-120.3c4,7-140.1,75.7-135.5,83.8c10.7,18.6,109.8-66.4,111-64.1c3.1,5.4-115.8,75.4-115.8,75.4
						c5.6,9.7,199.8-145.7,213-123c8.7,15.1-251.9,120.9-238.4,144.2c2.4,4.1,164.7-118.7,174.9-101c2.3,4-210.8,123-207.8,128.1
						c0,0,235.5-169.2,249.9-144.3C108.2-149.9-147.2-42-134-19.2c5.9,10.2,250.8-146,251.3-145.1c6,10.3-219.9,133.1-219.9,133.1
						c8.6,15,191.3-115.5,193.5-111.7c8,13.8-251.6,130.4-244.5,142.8c0,0,218.6-137.8,223.6-129.1
						C80.3-111.4-203.5,13.4-195.5,27.3c9.7,16.8,371.3-246.4,385.2-222.4c15.3,26.5-398,191.6-378.1,226
						C-181.3,43.3,89.5-170,107-139.7c4.3,7.4-204.3,98.8-195.4,114.2C-78.8-8.7,192.4-201.4,198.4-191
						c17.8,30.8-409.1,217.3-399.9,233.3S174.2-190.4,181-178.5c16.4,28.4-340.5,161-322.5,192.3c0,0,343.3-199.2,343.7-198.4
						C217.5-158.4-121.7-22.3-109.2-0.5C-96.9,20.7,162.1-172.4,168.7-161c0.4,0.8-316.7,181.8-314,186.6
						c15.4,26.6,261.5-170.2,269.9-155.8c1.1,2-333.8,170.1-322.2,190.3c18.6,32.2,418.9-275.3,433.4-250.2
						C255.1-156.5-174,38.5-166.7,51.1c14.1,24.5,343.3-235,359.2-207.4C208.8-128-188,39.6-176.6,59.4c3.9,6.8,378.6-268,400-230.9
						c11.6,20-381.6,225.2-379.9,228.1c1.8,3.1,350.7-244.6,368.9-213c10.8,18.6-426.8,213.3-412,238.9
						C-188.4,101.9,241-196.6,251.7-178c18.1,31-449.5,225-431.5,256.1c22.5,38.9,444-256.4,444-256.4
						c12.8,22.1-472.1,271.9-468.6,278c19.8,34.2,405.3-282,426.1-246c9.6,16.7-340.8,183.7-331.4,199.9
						C-92.4,83.8,249.7-170.8,257-158.1c6.2,10.7-470.1,234-452.7,264.2c0,0,441-262,444.2-256.5C252.8-143-102,31.4-90.6,51.1
						C-75.5,77.3,210.2-132.7,214.7-125c5.4,9.3-361.6,168.1-343.1,200.1C-114,100,213.2-143.3,222.3-127.4
						c0,0-429,248.8-428.2,250.3c24.6,42.7,427.1-249.7,428.5-247.4c15.9,27.6-331,177.4-322.8,191.7
						c2.5,4.3,353.7-235.2,367.1-211.9c3.8,6.5-442.4,230.1-429.5,252.5c15.3,26.5,419.3-299.4,444.2-256.4
						c1.9,3.2-435.9,248.7-434.6,251c26.8,46.4,471.8-319.8,492.3-284.2c17.4,30.1-460.6,273.3-460.6,273.3
						C-98,131.6,350.4-233.2,373-194c9.2,15.8-501.1,286.2-496.7,293.8c16.3,28.3,413.5-244.3,415.9-240.1
						c10.7,18.6-500.5,262-486.6,286.1c27.2,47.1,547.1-333.3,554.6-320.3c0.4,0.7-541.4,270.3-520.8,306
						c2.6,4.5,472.8-322.3,494.2-285.3c9,15.5-448,222-429.4,254.2c10.6,18.4,457.6-277.5,463.4-267.5
						C382.3-141.4-89.1,99-88.1,100.8c9.5,16.5,472-314.4,490.1-283c11.3,19.6-518.1,275.5-504.1,299.8
						c14.6,25.3,443.9-256.5,444-256.3C364.2-100-111.6,96.2-98.2,119.6c7.3,12.7,490.7-322.2,507.5-293
						c9.1,15.8-516,281.4-506.3,298c25.1,43.4,466-292.1,476-274.8c8.5,14.8-598.5,332.5-589.2,348.7
						C-176.9,256,335-178.8,362.1-132c23.2,40.2-502.6,275.5-492.8,292.4c12.8,22.2,579.8-365.2,593-342.4
						c35.7,61.8-620.5,312.6-598.9,349.9c27.5,47.6,551-340.7,560.8-323.8c25.1,43.5-559.4,294-543,322.4
						c4.6,8,523.2-312.5,527.7-304.7c14.8,25.7-531.2,280.6-518.3,302.9c0,0,503-322.8,517-298.5c11.1,19.3-579.1,313.7-567.6,333.7
						c27.7,48,659-435.6,682.9-394.2c13,22.5-654.9,344.6-636.9,375.9c2,3.4,523.8-367.8,552.1-318.8
						c21.4,37.1-659.5,346.8-643.3,374.8c36,62.4,718.7-459.5,738-426.1c20.8,36-672.5,348.9-652.8,383
						c13.6,23.6,548.2-401.2,584.9-337.7c15.6,27-556.2,319.4-553.5,324c37.4,64.7,562.4-365.1,579.9-334.8
						c6.6,11.4-661.5,381.2-660.6,382.8c0.6,1,641.4-394.5,651.9-376.4c0.9,1.6-659.1,300.9-621.3,366.4
						c0.4,0.8,612.8-415.3,639.4-369.2C532.9-94.7-123,170.6-103,205.3c13,22.6,536.8-391.8,572.3-330.4
						C488.5-91.8-132.3,189-114.2,220.3c16.3,28.3,605.4-411.1,632.1-364.9c35.6,61.7-667,352.8-650.9,380.7
						c25.2,43.6,591.6-399.1,616.5-356C483.9-119.2-112,224.5-110,228c9.2,15.9,606.7-383.7,621.2-358.6
						c33.7,58.7-638.8,319.6-613.8,363C-73.4,283,381-107.4,407.3-62c30.7,53.2-598,303.7-579.4,335.8
						c32.8,56.9,599.5-396.5,621.3-358.7C479.3-32.7-112.8,219-101.2,239c27.7,47.9,556.4-395.3,588.5-339.8
						c35.6,61.6-623.4,297.5-593.7,348.9c11.7,20.3,577.6-410.9,611.1-352.8c20.6,35.8-654.8,300.6-620.5,360
						c14.5,25.1,592.2-354.7,597.7-345.1C522.6-19.1-208.1,296.4-202,307c37.6,65.1,691.9-424,702.5-405.6
						c38.1,66.1-669.6,341.2-647.1,380.1c33.5,58,591.2-402.6,617.8-356.7c2.5,4.2-603,299.4-580.9,337.8
						c17.5,30.3,493.2-356.5,524.2-302.7c0,0-642.3,323-621.4,359.3c8.8,15.2,585.4-422.5,622-359.1
						c24.8,43-551.9,271.9-531.6,307.1c6.4,11.1,536-389.2,570.5-329.4c0,0-626.2,355.4-622.2,362.3c0,0,640-454.6,676.8-390.8
						C536-43.5-145.9,273.7-139.1,285.4c9.3,16.1,597.1-393.8,618.3-357c1.8,3.1-674.5,354.3-657.8,383.4
						c4.9,8.6,659.5-434.3,682.7-394.1c12.4,21.4-605.7,352.5-605.7,352.5C-87.9,293.8,487-89.5,495.7-74.5
						c0,0-666.7,378.6-660.9,388.7c19.7,34.2,660.2-459,693.9-400.6c40.9,70.8-684.4,400.8-684,401.4c22,38,634.8-401.7,650-375.3
						c37.8,65.4-679.8,347.1-660,381.4C-134.6,374.3,433.1-28.7,435-25.5c33.3,57.6-577.4,299.8-561.1,328
						C-95.3,355.8,509.4-72,512.7-66.3c34,58.9-652.8,341.2-637.1,368.3C-87.3,366.2,476-78.7,490.8-53.2
						c35.4,61.3-678.2,334.9-651,382c13.3,23,573-387.1,597.4-344.9c21.9,37.9-655,331.5-631,373.1c0.8,1.4,640.9-431.5,667.5-385.4
						c38.5,66.7-681,373-670.8,390.8c13.4,23.3,635-381.6,641.5-370.3c0,0-657.8,337.9-637.8,372.6c0,0,631.8-365.7,632.2-365
						c16.6,28.7-567.5,296.6-553.6,320.7c2,3.5,492.3-360.1,525.1-303.2C430.3,52-228.8,322.7-199.1,374
						c15.3,26.5,703.7-412.2,706.2-407.7c2.7,4.7-630.1,327-612.7,357.2c31,53.6,551-324.7,553.8-319.8
						C471.8,44.6-228.1,333-198.5,384.2c9.3,16.1,664.2-409.1,675.3-389.9c0,0-631.6,342.1-618.6,364.7
						C-121.7,393.9,512-55.1,528-27.5c24.1,41.8-645.9,344-632.3,367.5C-78.4,384.9,509-18.3,510.8-15.1
						c22.5,39-715.3,419.4-714.2,421.3c17,29.4,692.1-399.6,692.1-399.6c29.6,51.2-580.2,340.7-580,341
						C-78.1,370.3,479.5-67.2,516.4-3.3c7,12.1-670.8,306.8-635.4,368.1c0,0,599.3-390,618.3-357C529.4,60.1-154.4,391-154.4,391
						C-134.1,426.1,511.9,6.3,511.9,6.3c38.6,66.8-685.1,323.9-651,383c0,0,583.1-344,586.3-338.5
						c18.2,31.6-566.5,330.9-566.5,330.9c19,32.8,578.7-405.1,609.4-351.9C497,41.5-179,391.4-164.5,416.5
						c4.3,7.5,585.8-381.8,604.6-349.1c37.8,65.5-669.3,331.5-642,378.8c0.4,0.7,685.6-462.2,714.4-412.5
						c42.8,74.2-722.5,409.4-716.3,420.1c28.7,49.7,671.2-439,693.5-400.4c16.9,29.3-590.6,343.8-590.6,343.8
						c21.1,36.6,577.5-367.9,592.4-342c27.6,48-738.6,345.5-702.4,408.3c35.2,61,668-420.9,683.3-394.5
						c26.4,45.7-694.2,384.6-683.3,403.4c0,0,697.3-470.8,726.8-419.6c2.5,4.4-686.8,341.1-659.3,388.8
						C-138,451,448.4,84.5,455,96.1c13.1,22.7-570.8,305.2-559.8,324.3c28.9,50,583.7-373.8,599.6-346.2
						c3.3,5.8-705.1,330.7-668.6,393.9c33.6,57.9,639.5-451,675-389.5c38.1,66-677.8,354.9-660.9,384c0,0,626.8-375.8,632.8-365.4
						c41.1,71.1-696.2,383.3-687.6,398.3c28.1,48.7,680.2-397.1,682.1-393.8c11.6,20-573,300.7-559.8,323.5
						c15,25.9,474.1-358.2,510.6-294.8c11,19-639.5,334.5-623.2,362.7c31.2,54,636.7-430.7,664-383.4
						c17.1,29.6-645.9,359.7-639.8,370.2c5.6,9.6,583.4-377.6,601-347c28,48.5-547.7,304.8-541.5,315.5
						c11.7,20.3,613-362,616.5-355.9c17,29.5-700.2,356.5-676,398.4c18.4,31.9,601.8-385.9,618.5-357.1
						c27,46.8-653.3,350.8-640.6,372.8C-180.4,545,431.2,69,462.2,122.7c3.2,5.5-641.9,320.2-616.4,364.3
						c11,19.1,649.5-382,652.5-376.7C508.5,128-95.2,439.6-88.8,450.7c34.5,59.8,488.6-310.2,500.8-289.1
						c6.5,11.2-545.2,294.8-532.9,316.2c22.1,38.3,590.5-410.5,620.6-358.3c26.8,46.5-675.6,322.2-645.7,374
						c29.1,50.3,642.8-408.8,659.1-380.5c19.5,33.7-664.5,310.2-631.8,366.9c24.7,42.9,552-403.8,588.9-340
						c26.3,45.5-593.3,301.1-575,332.7C-76.1,522.2,467,95,487.5,130.6c12.2,21.1-652.2,379.9-651.4,381.4
						c36.2,62.7,664.3-385.4,665-384c36,62.4-667.9,371.6-661.8,382.2c35.6,61.7,651.5-400.7,662.1-382.3
						c18.7,32.3-697.2,392.1-689.3,405.8c32.1,55.6,684.1-427.9,698.3-403.2C526,157.3-162,498.8-151.1,517.6
						c8,13.9,609.8-435.3,645.8-372.9c3.6,6.3-624.1,292.7-592,348.4c8.3,14.5,556-347.2,567.3-327.5
						c37.4,64.8-674.6,388.2-673.6,389.9c20.3,35.1,701.5-457,724-418c40.9,70.9-724.5,354.6-694.6,406.4
						c8,13.9,563-384.9,588.9-340c10.5,18.3-624.1,306.2-598.7,350.2c36,62.3,625.1-423.5,652.2-376.6
						c4,6.9-679.6,325.8-649.2,378.4c30.7,53.1,694.5-435.3,709.4-409.5c34.5,59.8-649,306-616.8,361.6
						c33.2,57.6,486.8-356.4,519.4-299.9c22.5,39-664.9,322.9-636.8,371.6c10.9,18.8,605.9-407.6,630.9-364.2
						c8.5,14.6-525.8,293.9-520.5,303c22.7,39.3,602.4-386.3,619.1-357.4c7,12.2-672.2,317.2-639.9,373.2
						c31.3,54.2,582.8-393.3,607.4-350.7c23.2,40.1-634.4,328.9-614.8,362.8c3.2,5.5,613.1-419.2,641.4-370.3
						c13.9,24.1-719.9,405.6-712.6,418.3c7.7,13.4,624.9-383.1,634.5-366.3c2.7,4.7-535.9,306.9-531.4,314.6
						c14.5,25.2,520.8-331.4,534.1-308.4c34,58.9-637.8,300.9-606.4,355.2c11.1,19.2,580.5-389.5,604-348.7
						c28.9,50.1-556,306.4-547.6,320.9c4,6.9,580.8-335.3,580.8-335.3c29.3,50.7-606.5,278.1-572.6,336.9
						C-90,579.6,374.4,214.5,407,271c33.6,58.3-604.7,292.7-578,339.1c0.1,0.2,616.5-361.3,618.8-357.3
						c10.9,18.9-622.3,323.4-606.1,351.5c14.4,24.9,597.1-344.8,597.1-344.7c11.4,19.8-647.5,335.5-630.9,364.3
						c36.5,63.2,663.6-457.9,696-401.8c5.6,9.7-643.5,353.5-633,371.8c8.6,15,619.3-357.5,619.3-357.5
						C504.8,261.8-196.7,577-171.9,620c13.1,22.6,674.4-399.9,679-392c15.2,26.3-673.9,338.7-650.2,379.8
						c26.1,45.1,591.3-389.9,612.3-353.5C497.9,304-216,599.9-191.5,642.2c16.7,28.9,672.6-428.1,689.9-398.3
						c5.3,9.2-640.9,316.1-614.1,362.3c22.7,39.3,523.4-354.8,546.2-315.3l-543.7,316.2c30.4,52.7,574.5-400.8,604.5-349
						c24.5,42.4-699.7,375.7-684.5,401.9c9.1,15.7,633.3-366,633.4-365.7c39.1,67.8-666.2,338.4-642.5,379.5
						C-191.2,693,507.2,213.7,529,251.6c11.4,19.8-711.7,411.8-711.7,411.8C-171.4,683,451.5,288,455.5,295
						c28.5,49.4-553,309.6-546.7,320.5c12.5,21.7,554.2-347.2,566-326.8c16,27.6-663.3,329.4-638.8,371.7
						c0,0,587.8-382.6,606.5-350.2c24.2,42-604.5,313.7-588.3,341.8c29.5,51,575.5-370.5,592.1-341.8c0,0-585.3,285.3-561.2,327.1
						c10,17.3,532.6-355.6,553.5-319.6c26.3,45.6-559,284.4-541.1,315.5c17,29.5,602.4-402.5,626.1-361.5
						c36.3,62.9-720.1,361.7-696.5,402.6c0,0,597.8-409.6,625.7-361.3c6,10.4-651.9,359.3-643.7,373.4
						c9.1,15.7,564.6-409.5,600.8-346.8c1.7,3-516.1,259.4-495.5,295c12,20.8,513.9-308.1,518.8-299.5
						c0.5,0.8-533.4,308.8-531.1,312.8c22.6,39.2,481.7-360.5,517.4-298.7c8.5,14.7-534.4,267.5-513.4,303.9
						c13.9,24.1,503-355.4,531.1-306.7c36.7,63.5-642.7,342.9-627.4,369.3c9.1,15.7,668.8-443.6,693.7-400.5
						c0,0-657.7,351-644.5,374c20.3,35.1,576.6-376,595.3-343.7c30.9,53.5-579.9,314.8-570.7,330.7c27.1,47,578.3-389.2,602.3-347.7
						c35,60.7-658.6,370.7-652.8,380.9c30.2,52.4,586.2-399.5,612.6-353.7c13.6,23.5-536.1,298.8-531.3,307
						c26.6,46,575-356.8,585.8-338.2c28.9,50.1-693.6,396.9-689.2,404.6c36.6,63.4,583.5-413.6,616.7-356.1
						c32.9,57-597.5,311.3-582.7,336.9c15.3,26.5,609.5-369,616.9-356.1c33.5,58-565.5,300.6-552,324
						C-70.7,711.4,484,346.3,484,346.3c32.8,56.8-716.5,331.5-677.5,399.2c6.5,11.2,697.7-438.2,713-411.6
						c15.7,27.2-628.4,338.3-614.6,362.2c16.5,28.8,592.5-378.3,608.2-351.1c32,55.5-660.7,334.3-637.2,375
						c5.7,9.8,531.2-387.5,566.2-326.9C460.2,424.9-103.7,696.9-95,711.9c11.7,20.2,593.4-413.8,624.3-360.4
						c1.8,3.1-723.5,369.5-700.1,410c6.6,11.4,673.9-451,700.7-404.6c33.3,57.7-621,297.5-592.1,347.5
						c29,50.2,566.9-355.7,579.2-334.4c35.3,61.3-682.8,333.3-656.1,379.7c10.1,17.5,561.4-365.2,579.2-334.4
						c8.6,14.8-556.3,317.3-551.5,325.7c24.7,42.8,561.4-389.3,589.6-340.4c1,1.8-588.4,285-563.5,328.1
						c26.5,46,553.5-337.8,561.4-324.1c23.8,41.2-510.1,280.2-500.4,297C3,748.9,403.5,423.1,417.1,446.7
						c12.1,20.9-559.4,261.2-529.2,313.6c31.5,54.6,619.5-382.8,630.4-364c0,0-624.8,321.5-606.8,352.7
						c26.8,46.5,601.6-364.7,609.1-351.7c13.8,23.7-648.3,311.3-620,360.4c23,39.8,478.2-345.6,508.3-293.5
						c3.8,6.7-457.5,230.7-441.1,259.2c5.9,10.1,459.1-328,486.3-280.8c4.6,7.9-533.5,287.4-524.2,303.5
						c2.4,4.2,559.7-360.8,576-332.5c20.8,36-504.5,267.1-493.4,286.2c6.4,11,402.3-276.7,421.5-243.4
						c0.4,0.8-456.1,242.1-446.7,258.3c25.8,44.7,441.1-317.1,468.1-270.3c0,0-566,256.1-534.7,310.3
						c16.5,28.5,544.2-347.2,558.5-322.4c4.6,8-482.4,253.1-467.8,278.4c8.7,15,450-277.6,457.7-264.3
						c6.6,11.6-412.4,224-402.8,240.7c17.8,30.8,408.4-282.8,428.8-247.5c3.8,6.7-550.9,266.2-527.3,307.1
						c5.8,10.1,552.2-329.3,556.8-321.4C530.5,435.5-46,687.9-16.9,738.5c26.7,46.2,518.3-329.8,531.5-306.9
						c21.2,36.7-563.9,256.6-533.2,309.8C5.9,783.9,412.9,434,438.1,477.7c8.6,14.8-398.8,230.8-398,232.2
						c23.4,40.5,362.3-267.3,387.4-223.7c15.3,26.5-354.9,191.4-347.8,203.6c6.3,11,398.6-261.2,412.1-237.9
						c23,39.9-520.8,272.6-508.1,294.7c4.8,8.3,543.6-319.2,545.9-315.2C547.5,462-17.1,690,9.6,736.3
						C30,771.5,424.8,496.6,424.8,496.6C434,512.4,69.7,663.2,89.1,696.9c25.8,44.7,416.1-256.1,423-244.2
						c15.3,26.4-435.3,203.6-413.9,240.7c1.5,2.7,379.3-275.2,403.6-233C524.3,499.3-24,703.1,3.7,751.1
						C24.5,787,462.7,444,480.9,475.6c24,41.6-422.3,205-404.9,235c18.4,31.9,450.9-267.9,454.2-262.2
						c19,32.9-406.5,237.7-405.9,238.9c1.4,2.4,369.3-214.9,370.1-213.7c7.9,13.7-412.8,210.9-399.4,234
						c10.7,18.5,335.4-223.4,348.2-201c8.8,15.2-411.7,211.3-399,233.3c3.1,5.3,367.5-264.6,390.2-225.3
						c0,0-297.8,174.7-295.8,178.1c13.6,23.5,344.3-219.9,353.5-204.1c0,0-417.8,217.6-403.6,242.2C98.5,748.2,408.2,512,423,537.7
						c13.6,23.6-316.4,147.5-300.4,175.2c11.6,20.1,303.6-214.3,320.5-185c16.1,27.9-276.3,142.9-266.4,160
						c6.4,11.1,347.1-201,347.3-200.5c0,0-341.4,197.4-338.6,202.4c11.2,19.5,229.5-140.3,232.9-134.5c4,7-279.4,154.6-276.3,160
						c13.6,23.5,327.6-204,334.1-192.9c7.5,13-281.4,165.7-281.4,165.7c13.7,23.8,315.8-215,329.9-190.5
						c25.7,44.3-454.1,231.5-437.6,260l344.7-199c11,19.1-261.8,136.2-254.3,149.2c16.8,29,300.3-217,319.2-184.3
						C507,541.4,134.7,715.3,145,733.1c9.5,16.6,254.1-165.1,262-151.3c11.6,20.1-209.3,105.8-202.6,117.5
						c14.9,25.9,282.7-187.7,293.3-169.3c18.1,31.4-323.7,154-305.8,185c13.5,23.5,283.4-171.5,286.8-165.6
						c13.1,22.8-266.1,143-259,155.4c8.8,15.2,284.7-200.1,300.2-173.3c10.8,18.7-284,153.1-277.3,164.7
						c3.1,5.4,219.6-140.7,225.6-130.3c2.9,5-228.7,136.5-227.8,138c1.5,2.6,185.5-122.6,192.2-111c0,0-234.5,122.8-227.4,134.9
						c4.2,7.3,304.2-185.5,308.5-178.1c19.3,33.4-357.9,204.7-353.8,211.8c6.1,10.7,359.4-213.6,362-209
						c15.7,27.2-276,145-269,157.2c7.8,13.5,166-102,168.7-97.4c0,0-235.9,126.6-229.5,137.7c3.2,5.5,252.7-154.5,256.5-148.1
						c12.1,20.9-238.5,133.7-235.7,138.5C223,758,492,564.5,498.5,575.6c17.6,30.6-312.7,145.5-295.7,174.8
						C210.7,764.2,501,568.9,505,576c4.8,8.3-190.9,104-185.5,113.3c7.9,13.7,109.2-90.7,121.2-70c2.2,3.8-160,99.4-160,99.5
						S421.2,615.2,430.9,632c2.8,4.9-174.2,102.6-171.8,106.8c9.2,16,143.1-96.6,149.2-86.1c10.9,19-184.6,97.7-178.4,108.6
						c9.2,16,191.9-123.3,197.3-113.9c1,1.7-149.4,74.8-143.2,85.5c1.8,3.2,222-142.4,228.1-131.7
						c10.7,18.5-226.3,132.9-223.8,137.3c3.3,5.8,184.7-124.6,192.5-111.1c0,0-209.2,114.5-205.9,120.3
						c9.4,16.2,211.5-136.3,217.6-125.7c0,0-199,116.2-199,116.3c7.4,12.7,212.4-125.8,213.8-123.4c1.1,2-198.3,96.5-186.7,116.5
						c4.4,7.5,136-81.1,137.1-79.2c5.1,8.9-164.9,76.2-156.2,91.3c4,6.8,200.3-127.4,205.4-118.6c2,3.5-132.3,68.9-126.8,78.5
						c0.1,0.2,34.6-29.9,38.9-22.5c3.9,6.7-89.9,58.2-89.9,58.2c0.6,1.1,86.4-54.7,88.4-51.1c2.9,4.9-62.1,36.5-59.3,41.4
						c1.6,2.8,65.4-39.3,66.1-38.2c3.7,6.4-98.7,65.1-98.4,65.5c3,5.2,84-54.3,86.5-49.9c0.1,0.2-17.9,15.9-17.1,17.3
						c3,5.3,74.7-44.7,75.4-43.5c3.2,5.6-75.3,37.9-72,43.5c1.7,2.9,69.3-46.4,72-41.6c1.5,2.6-97.7,52.5-92.5,61.4
						c1,1.8,83.4-48.5,83.6-48.2c0.7,1.3-72.4,39.7-68.5,46.5c1,1.7,59.1-34.6,59.4-34.3c0.5,0.8,14.1,0.5,14.2,0.6
						c0.2,0.4,64.8-37.5,64.8-37.4s-83.2,46-80.1,51.3c0.3,0.6,12.2-8.8,13-7.5c0.6,1-24.8,13-23.6,15c0.9,1.6,24.2-14,24.2-14
						c1,1.7,20.6-9.8,21.8-7.7c0.6,1.1,7.8-5.8,8.4-4.8c1.5,2.7-25.1,19.9-24.7,20.6c0,0,0.2-0.2,0.3-0.1"/>
					<path class="st7" d="M-115.8,732.5l-19.1-13.9c0.5-0.7-10.3-7.1-9.8-7.8c0,0-1.4-0.9-1.3-1c0.4-0.5,7.7-1.3,7.8-1.6
						c0,0-45.3-32.6-45.2-32.8c1.7-2.3,47.8,38.3,50,35.3c0.2-0.3-13.3-8.1-12.6-9.1c0.9-1.2,13.3,10.3,14.2,9.1
						c0.4-0.6-14.5-9.8-14.2-10.3c0.6-0.9,15.5,10.8,15.9,10.3c1-1.3-16.9-10.3-15.9-11.6c0.1-0.1,51.5,38.9,54,35.5
						c0,0-38.6-25.7-37.5-27.2c0.3-0.3,38.2,29.1,40,26.6c1.5-2-113.8-78.8-112-81.4c3-4.2,116.1,101.5,124.5,90
						c0.8-1-111.1-78.5-110-80c0,0,75.8,48.4,76,48c1.2-1.7-35-25.4-35-25.4c4-5.5,56.4,41,60.3,35.6c2.8-3.8-10.7-5-9.4-6.8
						c0.3-0.5,20.9,13.1,22.1,11.4c0.8-1.1-81.6-59.3-81.6-59.3c4-5.5,66,44.5,66,44.5c4.3-5.9-59.4-38.8-57.3-41.7
						c3.2-4.5,95.5,64.5,96.3,63.4c4.2-5.8-133.2-92.6-131.2-95.3c4-5.6,103.9,70.6,104.2,70.2c1.5-2.1-69.2-48.5-68.4-49.7
						c4.5-6.2,69.4,58,73.3,52.7c0.8-1.1-45.3-24-41-29.8c5.3-7.3,86.2,65.9,90.3,60.3c1.1-1.5-172.2-113.9-166.9-121.2
						c6.7-9.2,92.4,62.7,93.4,61.3c3-4.2-83.3-46-76.4-55.5c1.8-2.5,78.6,60.9,82.1,56.1c1.1-1.5-11.4,6.1-4.6-3.3
						c1.8-2.4,69.8,51.5,70.9,50c4.5-6.3-163.6-107-158-114.8c4.7-6.5,167,133.7,174.7,123c4.7-6.5-168.3-116.3-165.5-120.2
						c6.3-8.7,102.3,85.4,110.1,74.7c6.5-9-53.4-25.5-47-34.2c7.6-10.5,125,97.4,129.1,91.8c1.9-2.6-200.7-140-198-143.8
						c6.5-8.7,183,153.9,195,137.4c7.2-9.9-181.3-117.2-174.4-126.7c0,0,189.8,141.8,194.4,135.3c1.5-2-213.1-154.2-212.8-154.6
						c9.1-12.5,135.5,109.8,141.7,101.3c0.2-0.3-109.7-63-101.7-73.9c4-5.5,66.2,48.9,69.3,44.6c0,0-72-35.9-64.2-46.7
						C-121,607.2,42.8,759,52,746.2c5.9-8.1-197-133.9-192.6-140c8.5-11.8,145.1,121,154,108.7c4.4-6.1-160.3-114.6-159.4-115.8
						c0.5-0.6,121.1,87.2,124.3,82.7c5.9-8.1-176.7-122.8-174-126.5C-182.5,537.1,32.5,743.1,46,724.6C58,708.1-148.8,605.8-138,591
						c14-19.5,179.6,141.1,187.9,129.7c0.4-0.5-166.7-111.9-162.3-117.9C-111,601,32.4,729.6,42.8,715.3
						c9.7-13.4-210.6-140.9-204.8-148.8c3.9-5.3,206.5,179.5,221.7,158.7c3.7-5-154.3-98.1-147.7-107.3
						c5.3-7.3,187.9,135.1,190.4,131.7c11.2-15.5-243.8-149.3-230.5-167.5c3.6-4.9,185.3,136.3,187.7,133
						c7.8-10.7-230.7-145.3-220.1-159.9c6.2-8.5,173.1,131.1,179.7,122c8.5-11.7-182.9-126.6-179.9-130.7
						C-148.2,529.3,30.9,704.3,43,687.6c14.3-19.7-139.2-97.9-137.7-100c0.6-0.8,111.5,93.2,120.5,80.9
						C40.3,648.6-141.5,547-141.5,547c12.1-16.7,191,147.9,198.2,138c4.4-6.1-247-142.1-229.2-166.5c5.1-7,254.4,195.1,260.3,186.9
						c6.6-9.2-202.5-137.4-197.9-143.8c9.8-13.5,258.3,185.5,259.5,183.7c11.4-15.7-340.3-222.1-328.4-238.6
						c19.8-27.2,286.6,215.3,293.3,206C117.7,708.2-192,506.9-184,496c11.7-16.2,301.4,234.2,311.6,220.2
						c3.6-4.9-329.9-227-323.9-235.3c2-2.8,267.3,221.9,284.5,198.3c18.9-26-287.7-171.9-270-196.2c22.5-31,325.9,231.5,326.9,230.1
						c17.4-24-349.1-244.4-344.7-250.5c3.6-4.9,346.3,252.9,350.9,246.5c22.3-30.6-283.4-174.4-268.4-195
						c13.5-18.5,305.4,224.5,310,218.1c5-6.8-376.6-257.9-369.1-268.2c17-23.4,387.2,283.2,392.1,276.5C231,719.7-168,480-159.2,468
						c19.2-26.5,311.8,262.7,332.3,234.6c17.2-23.6-293.1-208.4-291-211.4c19-26.2,320.4,233.3,322.1,231
						c16.4-22.5-404.6-253.1-385.2-279.9c14.1-19.5,320.2,235,323.6,230.4c1.3-1.8-286.4-188.7-277.2-201.4
						c1.9-2.6,372.8,291,385.1,274c11.6-16-422.5-295-416.9-302.9c11.1-15.3,341.2,261.5,349,250.9
						C199.4,670.1-101.1,514.9-88,496.9c19.9-27.4,272.7,234.8,293.1,206.7c14.5-19.9-380.4-221.1-354.1-257.3l322.5,230.5
						c11.7-16.1-293.8-198.8-286.8-208.4c20.4-28.1,263,221.3,279.3,198.8c0.8-1.1-324.2-197.2-306-222.3
						c1.8-2.5,321,254,331.6,239.5c9.9-13.7-346.1-219.9-331.1-240.5C-123,421.4,231.3,731.5,241.8,717
						c8.4-11.5-388.8-264.4-380.2-276.2c21-28.9,324.4,244.9,331.9,234.5c26.1-35.7-317.4-179.9-293.4-213
						c27.6-38,367.2,271.4,369.5,268.2c21.8-30-422-262.2-400.9-291.3c3.3-4.6,322.1,252.2,331.3,239.4
						c24.5-33.8-406.6-263.6-391.5-284.4C-175.6,372.6,262,716.9,262,716.9c20.8-28.7-392.2-237.7-369.7-268.6
						c8.4-11.5,317.4,267.3,337.2,240C242.1,671-119.6,471.7-102,447.4c0,0,337.6,296,364.2,259.4
						c25.9-35.6-461.9-320.8-454.9-330.5c14.6-20,412.7,297.6,415.7,293.5c4-5.6-351-207.6-328.4-238.6
						c17.6-24.3,411.1,345.7,437,310.2C343,725.7-110.7,459-92.2,433.5c8.7-12,371.7,274.4,377.4,266.6
						c3.6-4.9-412.3-254.1-390.7-283.8c4.1-5.6,332,292,356.4,258.4c33-45.4-393.7-226.6-365.4-265.5
						c24.8-34.2,361.9,282,372.5,267.3c0.3-0.5-437.4-258.5-409.2-297.3c5.4-7.4,392,333.9,418.6,297.2
						c1.3-1.8-428.3-283-414.9-301.4c0,0,459.9,338.8,464.5,332.5c24.2-33.3-545.3-343.7-520.3-378c20-27.5,549.5,432.1,566.1,409.2
						C386.6,705.8-194.1,334-194.1,334c21.5-29.5,522.8,435.9,551.8,395.9c0,0-531-319.3-499.4-362.8
						c28.5-39.2,487.8,349.4,488.9,347.8c36.8-50.7-480.3-313.7-463.5-336.8c8.8-12.1,423,336.1,439.7,313
						c9.2-12.7-473.5-339.4-471.4-342.5c1.1-1.5,469.5,341.8,472.3,338c5-6.9-478.5-344.1-476.8-346.4
						c23.8-32.6,443,391.8,479.3,341.8c28.3-38.9-485.7-346.2-482.5-350.6c28.8-39.6,474.1,418.4,512,366.4
						c10.3-14.2-516.3-302.3-481.6-349.9c36.2-49.8,541.8,431.8,560,406.7c33.1-45.5-633-434.3-620.8-451
						c35.3-48.5,545,395.1,548.1,390.8c2.2-3.1-536.6-367.6-526-382.1c9.5-13.1,543.4,419.6,558.2,399.3
						c17.1-23.7-565.9-330.5-527.6-383.3c23.6-32.5,474.1,419.9,510.8,369.3c7-9.7-498.4-341.8-488.7-355.1
						C-96.6,322.1,446.1,742,446.1,742c39.3-54.1-601-385.7-576.8-419.1c10.9-15,509.5,414.4,532.5,382.7
						c5.4-7.5-591-347.1-551.9-401c0,0,554.5,447.1,578.2,414.5c38.4-52.8-618.5-413.6-601.5-437c33.7-46.4,506.1,447.3,547,391.1
						c6.9-9.5-507.6-355.5-501.3-364.2c11.1-15.2,563.7,428.8,576.6,411c7.7-10.5-581.7-348.6-546.5-397.1
						c25.3-34.8,576.5,438.6,589,421.3c5.5-7.6-702.9-497.9-696.8-506.3c30.7-42.3,653.9,512.1,673,485.9
						c8.5-11.6-635.1-421.5-616.1-447.6C-124.8,243.6,412.9,690,418.7,682c31.2-43-546.2-334.4-516.5-375.3
						c32.1-44.1,497.4,382.3,510.2,364.6c37.7-51.8-552.2-337.9-522.1-379.3c25.9-35.6,512,388.3,520,377.3
						c18.6-25.6-546.5-385.8-541.2-393.2c43.6-60,602,454.2,613,439.1c17.4-24-638-364.7-591-429.4c5.1-7,539.7,472.9,578.6,419.4
						c2.7-3.8-643.7-442.4-631.7-459c25.1-34.6,587.5,477.1,613.2,441.7c37.5-51.6-650-432.5-631.1-458.5
						c28.1-38.6,658.6,562.5,700.5,504.9c14.2-19.5-614.1-446.1-614.1-446.1c36.3-49.9,488,392.4,508.7,363.8
						c5.8-8-524.5-331.5-501-364c16.2-22.3,548.6,397.6,551.7,393.3c15.5-21.3-639.4-430.8-623.4-452.9
						C-134.7,197,381.1,683,414.4,637.2C449.3,589.4-156.9,285-127,243.8c11.6-16,639.1,466.6,640.9,464.2
						c35.4-48.7-683.2-430.4-651.8-473.6c29.6-40.7,657.6,473.7,658.1,473c24.1-33.2-685.5-482.4-678.1-492.6
						c46.6-64.2,613.4,524.6,653,470.1c39.3-54.1-617.9-419.2-603.7-438.6c25.4-34.9,530.2,426.4,553.4,394.5
						c28.5-39.2-616.3-378.9-583.5-424c41.4-57,581.9,471.3,607.6,435.9c3.5-4.9-589.2-374.4-563.7-409.5
						c10.8-14.8,588.2,474.1,613,439.9c21.5-29.5-675.3-428-645.5-469c42.1-57.9,620.1,511.7,650.2,470.4
						c41.2-56.8-671.9-487.8-671.7-488c43.6-60,600.6,466.6,617.6,443.2c10.7-14.8-607.5-405.1-590.2-428.8
						c1.3-1.7,552.5,451.2,577.2,417.2c44.5-61.3-636.3-397.3-605.3-439.8c16.4-22.6,644.7,498.6,663.1,473.2
						c0,0-666.7-465.6-657.8-477.9c23.8-32.7,564.4,411.1,565.3,409.8c32.6-44.8-600.5-415.5-590.6-429.1
						c51.4-70.7,636.1,540.9,673.7,489.2c16.6-22.9-701.4-475.9-685.4-497.9c14.5-19.9,610.3,542.6,658.2,476.6
						c28.1-38.5-625.7-357.5-579.6-421c22.8-31.3,601.4,452,612.1,437.3c20.4-28.1-699-479.7-685.6-498.1
						c20.3-27.9,610,462.5,622.5,445.4c0.4-0.5-639.7-407.3-612.4-444.9c34.3-47.1,590.1,486.8,619.9,445.8
						c21.2-29.2-644.1-399.8-611.7-444.4c39.2-54,627.4,492.9,646.2,466.9c6.6-9.1-622.5-449.2-621-451.2
						c5.8-8,559.7,403.5,559.7,403.5c21-28.8-607.2-372.5-574.6-417.5c40.5-55.8,648.3,535.6,680.8,490.9
						C544,630.2-157.5,215.7-123,168.1c21.4-29.5,541.4,466.7,576.4,418.5c27.1-37.3-659.6-449.8-645.5-469
						c29.8-41,605,536.4,651.2,472.9C501.3,532.1-161,223.6-121.3,169c25.6-35.3,581.6,500.1,621.7,444.8
						c23-31.7-622.7-397.2-596.5-433.3c39.4-54.2,535.3,395.7,539.2,390.3c1.8-2.5-644.3-387.6-606-440.3
						c32.7-45,604.3,488.1,628.4,455c14.5-20-624.5-383-590.9-429.3c12.1-16.6,583.6,469.1,607.4,436.3
						c19.9-27.3-615.5-397.7-591.9-430.1c10.8-14.8,618.4,490.6,641.2,459.2c41.5-57.1-649.9-462.1-645.1-468.7
						c7.7-10.6,559.4,398.8,559.4,398.8c0.5-0.6-643.8-401.7-612.4-444.9c38.5-53,544.2,480.6,586.7,422.2
						c0,0-639.3-418.2-617.3-448.5c39.3-54,720.6,516.1,720.6,516.1c15-20.7-685.7-491.2-682.4-495.8c7-9.6,544.1,466.2,579.4,417.6
						c27.1-37.3-586.9-385.8-567.6-412.4c0,0,576,465.1,600.7,431c31.2-43-672.6-442.7-650.7-472.8c0.5-0.8,607.2,502.6,636.8,461.9
						c13.1-18-565.2-391.2-556-403.9c3.1-4.2,510.3,430,539.6,389.6c33.5-46.1-570.2-359.8-544.3-395.4
						c14.5-20,554.7,455.6,580.7,420c0,0-620.9-424.2-608.1-441.8c9.1-12.5,578.1,444.7,591,426.9C447.8,514-239.2,104-202.3,53.2
						c6.2-8.5,670.1,580,717.9,514.2c21.6-29.8-711.3-475-691.3-502.4c1.7-2.4,629.8,485.1,646,462.8
						C505.7,479.1-164.2,121-138.4,85.6c46.1-63.5,631.8,540.9,671,487c0,0-706.1-502.2-701-509.3c10.3-14.1,568.8,490.9,606,439.7
						c1-1.3-562.1-333-526.2-382.3C-43.4,58.4,499.7,557.3,505,550c15.2-20.9-696.4-434.9-662.6-481.4c32-44,632.7,497.9,651.5,472
						c1.6-2.2-711.1-482.7-695-504.9c1.3-1.8,624,528,660.8,477.4c33.4-45.9-636.9-424-618.5-449.4c11.3-15.5,631,456.3,631,456.3
						c28.3-38.9-612.5-365.8-574.8-417.7c5.7-7.8,603.3,503.5,636.7,457.4c3.8-5.2-723.5-525.3-723.3-525.5
						c13.7-18.9,627.5,490.3,646.2,464.4C475,474-211.6,76.9-181.1,34.9c30.4-41.8,680.3,529.5,697.3,506.3
						C543,504.2-179.3,71-162.6,48c36.7-50.6,628.9,523,663.8,475C542.9,465.6-176,31-176,31c48.1-66.2,645.6,551,685.2,496.5
						c14.4-19.8-662.3-439-642.3-466.6c25.4-35,593.3,515,636.3,455.8c30.5-42-663-414.7-631.1-458.5
						C-84.7-1.4,482.2,499.6,482.6,499c41-56.5-669.5-462.6-658.2-478.2C-157.6-4,395,504.9,430,456.8
						C466.1,407.1-162.1,120-117.7,58.9C-89.4,20,475.4,560.3,509.9,512.8c44.2-60.9-653.4-392-614.1-446.1
						C-85.7,41.2,490.9,566.8,524.9,520c45-61.9-745.1-468.6-710.4-516.3c4.3-5.9,648.3,542.9,683,495.1
						C506.7,486.1-124.4,67.2-114.8,54c36.2-49.9,565,481.6,600.4,432.9C529.2,426.9-202.6,82.7-157,20
						c30.2-41.6,666.4,507.5,679.5,489.5C560.5,457-162,34.8-151.3,20.1c19.7-27.1,633,452.2,633,452.2c24-33-651.6-449-640-465
						c20.8-28.6,628.2,503.2,652.5,469.7c26.7-36.7-650.7-456-642.6-467c23.1-31.8,620.9,530.5,661.6,474.5
						c20.5-28.3-752.2-472.6-717.1-521c11.9-16.3,644,477.7,648.9,471c34.9-48-577.2-385.5-561.1-407.7
						c6.8-9.4,548.6,418.6,561.4,401C454,415.8-172.2,39.3-143.6,0C-104-54.5,473.3,547.5,524,477.8C563.8,423-131.8,14.9-125.4,6
						c10-13.7,571.8,489.9,610.6,436.5c35-48.2-615.4-426.5-605.6-440C-111.5-9.7,500,474.8,513,456.9c5.5-7.5-667-448.1-649.6-472
						c7.8-10.8,638.1,466.3,642.3,460.6c16.7-23-737.6-470.1-706.4-513.2c46.4-63.8,600.7,524.8,643.4,466
						c37.7-51.9-663.2-389-619.1-449.8c16-22,589.9,493.9,621.1,450.9C445,399.1-111.4,31.3-94.4,7.8
						c35.6-49.1,492,394.2,510.1,369.3C440.4,343.1-154,0.2-136.4-24.1c6-8.3,609.4,473.9,626.9,449.9
						c41.2-56.7-623.6-403.2-599.9-435.9c23.5-32.4,487,428.4,525.8,375.1c29.3-40.3-587.9-349.6-551-400.3
						c43.7-60.2,568,487.2,605.4,435.6C479.7,388-154.4-22.8-139.6-43.2c12.5-17.2,628.8,522,660.6,478.2
						c1.4-2-626.5-450.7-624.3-453.6C-84.1-45,459,417.5,475,395.6C480.5,388-109.4,0.1-95.5-18.9C-80.6-39.4,460.1,422.5,480.1,395
						C495.2,374.1-101.7-3.1-90-19.3C-55.3-67,458.6,389.6,465.5,380.1c18.4-25.3-586.2-410.9-579.1-420.7
						c5.8-7.9,558.8,409.6,563.9,402.6c6.2-8.5-600.3-340.9-555-403.2c31.7-43.7,557,420.8,566.5,407.8
						c44.1-60.8-665.7-443.5-646.6-469.8c25-34.4,618.5,546.9,667.9,479C519.5,325.7-109.1-10.1-88-39.1
						c33.2-45.7,558.2,406.5,559,405.5c40.8-56.1-639.6-375.8-597.3-434c17.3-23.8,575.2,486.8,609.3,440
						c23.5-32.3-627.2-452-625.4-454.4c23.8-32.8,566.8,462.4,593.7,425.4c22.5-31-606.8-434.4-603.7-438.6
						c40.8-56.1,581.2,513.8,626.5,451.6C483,344.2-234.6-82-198.2-132.1c31.5-43.3,662,476.1,663.6,473.8
						c34.1-47-685-431.5-653.5-474.8c9.2-12.7,583.1,478.7,610.6,440.9c19.2-26.4-568.3-388.5-556.7-404.5
						c43-59.2,583.2,501.7,624.1,445.4c7.4-10.2-680.7-417.3-644-467.9c18.4-25.3,580.7,432.5,588.1,422.3
						C455.7,273-219.7-77.5-174.9-139.1c48.4-66.6,597.1,525.1,644.4,460c3.8-5.3-665.6-451.1-650.1-472.4
						c44.6-61.3,578.5,494.8,617,441.9c44.4-61.2-603.4-338.9-556.1-404c33.7-46.3,574.4,437.4,586.1,421.3
						c3.4-4.7-603-418.4-593.6-431.3C-114.5-141.1,467.3,381,503,331.8c16.6-22.9-681.1-485.3-676.5-491.5
						c3.4-4.6,663,542.2,694.9,498.4c6.8-9.4-651.5-380.2-607.2-441.2c18.3-25.2,508.2,406.2,529.7,376.6
						c24.2-33.3-601.1-375.6-572-415.6c5.6-7.7,558.2,451.4,584,415.8c23.1-32-588.4-372.7-562.3-408.7
						c8.9-12.2,563.3,472.5,594.3,429.9C506.6,269.8-207.8-143-176-186.8c42.6-58.6,672.3,486.7,672.3,486.7
						C518,270-110.5-140.9-110.5-140.9c27.8-38.3,606.9,439,606.9,439c44.6-61.5-701.2-451-673.4-489.3
						c2.3-3.2,699.3,512.5,704.9,504.8c46.5-64-701.4-460.7-678.1-492.7c32.8-45.2,637,528.1,669.7,483.2
						c38.4-52.9-730.7-474.6-703.9-511.4c43.7-60.1,608.2,440.9,608.2,440.9c22.5-31-580.5-392.6-566.6-411.7
						c40.2-55.4,569.5,407.5,569.5,407.5c42-57.8-650.1-375.9-604.3-439c43.5-59.9,619.9,488.5,638.3,463.1
						C504.7,193-116.2-91.6-81-140.1c18.9-26,513.3,384,520.1,374.7c21.8-30-519.8-363.3-513-372.7c28.5-39.3,501.4,370,506.4,363.2
						C453.7,196-173-161.7-147.7-196.5c37.6-51.8,614.1,482.9,632.2,458C496.6,244.6-108.8-81.2-66.8-139
						c6.3-8.8,487.1,427.3,524.2,376.2c20.1-27.6-530.6-385.5-530.6-385.5c11-15.1,584.4,420.8,584.4,420.8
						c3.6-5-563-401-559.2-406.3c22.5-30.9,500,428.8,533.9,382.3C504.6,222.7-99.5-122-73.4-157.8c26.2-36.1,573.7,424.9,578,418.9
						c19.4-26.7-655.3-419-628.1-456.4c4.7-6.4,624.7,481.9,641.2,459.2c36.8-50.7-670.4-471.6-663.1-481.8
						c10.8-14.8,534.9,466.8,576.1,410.1c1.1-1.5-511-363.1-507.1-368.5c32.1-44.2,547.5,449.4,572.7,414.6
						c25.4-35-607.8-383-579.9-421.3c32.5-44.7,477.9,394.7,503,360.2c13.3-18.2-549.5-376.9-538.9-391.5
						c45.9-63.2,615.4,521.2,651.3,471.8c10.8-14.9-554.4-402.8-554.4-402.8c34.3-47.2,425.4,375.5,459.9,327.9
						c7.9-10.8-543.8-347.6-521.2-378.7c32.4-44.6,574.7,420.3,578.1,415.6C496.9,216-62-148.4-44.9-172
						c31.1-42.8,544.6,401.9,549.2,395.5c2.7-3.7-511.1-326-489.5-355.6c20.8-28.6,409.9,339.9,430.4,311.7
						C473.6,140.6-14.5-95,13.8-133.9C37.5-166.5,528,246.8,535.4,236.6c16.7-23-639.8-431.8-624.1-453.4
						c9.5-13.1,523.5,455.3,560.9,403.8c0.1-0.1-488.5-329.6-476.5-346.2c10.6-14.6,423.4,300.3,423.6,300
						c28.1-38.7-424.4-301.7-421.2-306c0.1-0.1,485.8,393,505.8,365.5C516.2,183.4,1.3-125.2,20.2-151.2
						c1.1-1.5,382.2,310.9,400.3,286.1C447.9,97.1-49.2-162-28.1-191C-8.7-217.8,410,161.4,428.5,136C429,135.3-65-206.2-57.2-217
						c39.9-54.8,539.2,467.5,576.4,416.4c25.9-35.6-568.9-353.3-540.3-392.6c14.5-20,435.6,362.2,460.9,327.4
						C474.7,86.1-39.1-154.6-11-193.3C25.6-243.6,435.9,201,470.7,153.1C501.8,110.3-8.8-188.7-5.6-193
						C6-209.1,452.7,172.6,469.8,149c6.7-9.3-455.2-304.8-442.8-321.7c0,0,441.4,377,469.5,338.3c22.6-31.3-504.8-310.2-478-347.2
						C34.4-203.4,509,188,517,177c15.9-21.9-490.6-289.8-458.9-333.4c6.7-9.2,390.6,320.5,412.1,290.8
						C488.7,109,11.9-166.2,27.3-187.4c35.4-48.8,494.4,377.5,504.5,363.6c14.6-20.1-456.4-306.1-444.3-322.8
						c30.8-42.4,436.1,323.7,443.1,314.1c17-23.4-494.8-318.7-475.4-345.4C75.8-206,506.5,158.5,512.7,150
						c21.9-30.2-457.3-301-442.4-321.5c17.4-24,349.3,246.1,349.3,246.1C444.8,40,14.9-209.8,19.4-216.1
						c8.9-12.2,383.4,321.9,405.2,292C438.1,57.4,107.2-133,117.5-147.2c20.7-28.5,351.6,291.4,370.4,265.5
						c6.5-9-347.1-242.3-342.4-248.8C164.2-156.3,518.8,136,518.8,136c0.3-0.4-449.9-315-444.3-322.8
						c8-10.9,367.9,310.7,388.8,281.9c23.5-32.4-342-188.2-313.3-227.6c3.5-4.8,336.1,243.8,336.1,243.8
						c0.4-0.5-420.8-250.5-394.5-286.6c24.9-34.3,407.5,356.8,437.5,315.5c23.3-32-455.5-294.5-438.2-318.4
						c17.1-23.6,376.6,314.9,397.9,285.6c1.4-1.9-422.3-261.6-400.8-291.2c28.6-39.3,429,345.5,446.8,321
						c16.2-22.3-421.4-300.1-418.5-304.1c18.3-25.2,381.1,327.3,408.4,289.8c6.2-8.5-491.4-304-466.2-338.7
						c5.1-7,418.5,322.4,429.4,307.5c13.3-18.4-356.1-246.6-350.3-254.5C160.6-194.4,478.9,81,478.9,81
						C488,68.2,128-150.3,139.2-165.8c21.5-29.6,353.3,276.4,364.1,261.5c4-5.6-332.5-200.5-312.9-227.4
						C198-142,476.1,86.8,482,78.8C503.7,48.9,144.8-148.3,153.3-160c6.4-8.8,367.8,274.1,375.2,264
						c21.2-29.1-373-241.4-358.9-260.8C185-178,434.5,49,442.2,38.2C463.9,8.3,171-151.5,174.5-156.3
						C190-177.7,456.7,42.3,456.7,42.3c9.7-13.4-258.1-155.3-242.8-176.4c3.2-4.4,285,204.7,285.3,204.2
						c12.4-17-358-242.6-349.7-254c14.5-19.9,283,225,295.3,208C460,3.2,209-134,215.3-142.6c1.6-2.3,214.9,166.2,223.7,154
						c2.3-3.2-223.5-132.2-209.1-152C238-151.7,439.8,19.2,446.5,9.9c16.9-23.2-262.6-147-241.8-175.7C217-182.7,414.2,5.5,424-8
						c19-26.1-288.2-197.1-282.4-205.2c17.6-24.3,310.3,268.7,332.8,237.8C485.8,9,163.9-185,171.5-195.4
						c9.4-13,293.5,245,311,220.9C496,7,187.1-189.1,187.1-189.1C196.2-201.7,418.8-19.4,423-25.2c18.9-26-262.9-154.4-245.5-178.3
						c3.5-4.8,261.1,189.3,261.1,189.3c16.1-22.1-200.8-110.2-183.9-133.5C263.9-160.4,498.6,35,502.5,29.6
						C516.1,10.9,199-177,205.6-186.1c0,0,302.4,240.5,313.6,225.2c11-15.1-283-200.8-280.7-204C259.7-194,517.2,71.4,533.8,48.5
						c2.3-3.2-374.4-249.7-363.8-264.3C181.7-232,419.1-21.5,425.5-30.4c16.5-22.8-226.7-125.4-208-151.1
						c7.2-9.9,309.4,233.6,314.8,226.1c4.2-5.8-323.2-209.1-311-225.9c3.9-5.3,258.3,217.2,273.3,196.5
						c0.6-0.9-223-134.5-209.9-152.5c2-2.8,163.8,128.6,168.7,121.9c17.8-24.5-289.1-177.5-273.6-198.8
						c2.5-3.4,282.4,230.6,297.4,210c3.6-5-221.6-134.9-209.2-152c10.5-14.4,230.9,182.8,239,171.6
						c8.1-11.2-303.2-211.8-299.2-217.3c18.4-25.3,301,221.2,305.4,215.2c10.3-14.2-289.5-206.2-287.5-208.9
						c6.6-9.1,220.3,191,237.1,167.9C475.5-45.4,244-167,253.4-179.8c13.1-18,263.8,212.5,275.6,196.2C536.7,5.8,231-185.4,238-195
						c8.2-11.4,169.3,146.5,182,129s-145.4-94.6-140.1-101.8c9.4-12.9,156.1,114.5,160,109c10.4-14.4-167.1-99.9-156.8-113.9
						c1.9-2.7,228.5,182,237.4,169.8c8.1-11.1-259.1-174-252.4-183.4c2.2-3,153.1,128,163.5,113.7c4.3-5.9-104.9-69.7-101.8-73.9
						c6.6-9,164.2,124.7,168.3,119.1c0,0-228.9-149.8-221-160.6C291.3-207.5,514,15.8,529.7-5.8c10.4-14.4-241-153.3-230.6-167.6
						C302.5-178,526.8,3.2,534.2-7c0,0-258.1-185.7-257.2-186.9c7.8-10.7,211.9,180.4,226.4,160.4C513.8-47.8,318.6-167,319-167.5
						c5.3-7.3,131.9,91.1,133.4,89c4-5.5-127.9-89.6-126.3-91.8c11.5-15.9,156,122.9,163.3,112.8c1.5-2.1-217.3-144.7-211-153.3
						C292-229.5,487.2-57.3,491.6-63.5c7.9-10.9-177.5-112.4-169.6-123.2C323.9-189.3,479.3-65,483.6-71
						c9.2-12.7-127.8-71.6-117.7-85.5c8.3-11.5,117.5,90.8,124.2,81.7c3.4-4.7-103.7-62.7-97.6-70.9c7.8-10.7,101,76.2,106.2,69
						c0.1-0.2-180.1-123.2-176.5-128.2c11.5-15.9,182.2,143.3,190.1,132.5c0.8-1.2-83.5-55.2-80.9-58.7c0.7-1,11.7,8.3,12.2,7.6
						c3.4-4.6-92.4-62.6-90.2-65.6c3.6-5,62.7,51,66.5,45.9c0.3-0.4-77.1-42.7-70.8-51.4C350-195.8,498-76.7,506.7-88.7
						c5-6.8-76.1-45.2-71.3-51.8c0.2-0.3,14.3,6.6,14.9,5.7c2.1-2.9-41-22.9-37.7-27.4c3.5-4.8,68.5,50.3,72,45.5
						c3-4.1-106.8-76.1-106-77c2.1-3,122.2,100.3,129.7,90c3.5-4.9-43.4-29.9-42.6-31c0.6-0.8,12.5,4.6,12.9,4
						c2.9-4-14.1-4-11.2-8.1c0.9-1.3-30.7-20.8-29.6-22.3c1-1.4-69.9-46.4-67.9-49.3c5-6.9,98.4,78,105.1,68.7
						c2-2.8-45-32.4-44.8-32.6c0.9-1.3,43.9,25.6,44.8,24.3c1.7-2.3-34.6-22.8-33.5-24.3c0.6-0.8,31,26.9,33.5,23.6
						c0.4-0.5-33.1-22.6-32.4-23.6c0.1-0.2,30.4,24.3,32.4,21.5c0.7-0.9-30.5-20.1-29.5-21.5S426-193,427-194.4
						c0.5-0.7-17.9-10.8-16.9-12.3c8.2-11.3,107.1,79.4,110.6,74.6c0.8-1.2-106.3-77.3-106.3-77.3c0.8-1.1,19.2,11.6,20.2,10.2
						c0.3-0.4-13.1-9.3-13-9.5c3.9-5.4,49.5,40,53.4,34.6c-0.1-0.1-0.2-0.1-0.3-0.2"/>
				</g>
			</g>
		</g>
	</g>
</g>
<linearGradient id="SVGID_10_" gradientUnits="userSpaceOnUse" x1="5460.481" y1="134.1122" x2="5818.2168" y2="264.3209" gradientTransform="matrix(1 0 0 -1 -5511.0698 464.8844)">
	<stop  offset="0" style="stop-color:#55BB72;stop-opacity:0.5"/>
	<stop  offset="1" style="stop-color:#FFFFFF;stop-opacity:0"/>
</linearGradient>
<path class="st15" d="M92.8,419.2h180v61H3.8v-62.5c0,0,76-92,143-176.7s61-79.8,61-102.3S190.5,73.9,138,73.9
	c0,0-63.5,1.4-63.5,67.4H5.8C5.8,141.2,14.3,3,143.2,3s133,132.6,133,132.6s-1.1,48.7-32.7,89S92.8,419.2,92.8,419.2z"/>
<line class="st16" x1="704.8" y1="326.1" x2="1205" y2="248.5"/>
<path class="st2" d="M911.1,320.6"/>
<path class="st2" d="M911.1,323.7c0,0,3.9-81.8-85.1-81.8s-83.9,68.7-83.9,70.5s0,37.2,0,37.2V417c0,0,11.6,63.6,86.5,63.6
	s82.5-80.7,82.5-80.7V323.7l-42,6.5v69.6c0,0-3.4,37.2-41,37.2s-44.2-33.5-44.2-33.5v-60.1v-26.5c0,0,6-29.9,42.1-29.9
	c33.2,0,43.1,29.9,43.1,29.9v13.4"/>
<polygon class="st1" points="872.1,346.6 908.1,346.6 908.1,320.2 872.1,315.1 "/>
</svg>
